<svg width="1448" height="130" viewBox="0 0 1448 130" fill="none" xmlns="http://www.w3.org/2000/svg">
<path d="M19.063 29.272H18.551V87.256C18.551 89.6453 18.5937 91.5227 18.679 92.888C18.8497 94.2533 19.1483 95.32 19.575 96.088C20.087 96.856 20.727 97.4107 21.495 97.752C22.263 98.008 23.287 98.264 24.567 98.52L29.175 99.416V103H2.551V99.416L6.391 98.52C7.415 98.264 8.26833 98.008 8.951 97.752C9.63367 97.496 10.1883 97.0267 10.615 96.344C11.127 95.576 11.4683 94.552 11.639 93.272C11.8097 91.992 11.895 90.2 11.895 87.896V28.12C11.895 26.1573 11.8097 24.6213 11.639 23.512C11.4683 22.4027 11.1697 21.5493 10.743 20.952C10.4017 20.2693 9.88967 19.8 9.207 19.544C8.60967 19.288 7.84167 19.032 6.903 18.776L2.551 17.88V14.296H36.215L71.287 66.008H71.799V30.04C71.799 27.6507 71.7137 25.7733 71.543 24.408C71.4577 23.0427 71.2017 22.0187 70.775 21.336C70.3483 20.568 69.7083 20.0133 68.855 19.672C68.087 19.3307 67.063 19.032 65.783 18.776L60.919 17.88V14.296H87.799V17.88L83.959 18.776C82.935 19.032 82.0817 19.288 81.399 19.544C80.7163 19.8 80.119 20.312 79.607 21.08C79.1803 21.7627 78.8817 22.744 78.711 24.024C78.5403 25.304 78.455 27.096 78.455 29.4V103.128H69.367L19.063 29.272ZM109.251 104.536C103.192 104.536 98.4563 103.085 95.043 100.184C91.715 97.1973 90.051 93.016 90.051 87.64C90.051 84.824 90.563 82.392 91.587 80.344C92.611 78.2107 94.1043 76.376 96.067 74.84C98.115 73.304 100.547 71.9813 103.363 70.872C106.264 69.7627 109.507 68.7813 113.091 67.928L126.019 64.728V53.592C126.019 48.3013 125.379 44.6747 124.099 42.712C122.819 40.7493 120.43 39.768 116.931 39.768C114.968 39.768 113.603 40.1093 112.835 40.792C112.152 41.3893 111.726 42.584 111.555 44.376C111.214 48.472 110.275 51.3733 108.739 53.08C107.288 54.7867 104.899 55.64 101.571 55.64C98.755 55.64 96.579 54.9573 95.043 53.592C93.5923 52.1413 92.867 50.1787 92.867 47.704C92.867 43.608 95.3417 40.4507 100.291 38.232C105.24 35.928 112.195 34.776 121.155 34.776C129.176 34.776 135.406 36.1413 139.843 38.872C144.28 41.5173 146.499 45.9973 146.499 52.312V87.768C146.499 90.1573 146.67 91.9067 147.011 93.016C147.438 94.1253 148.248 95.0213 149.443 95.704C150.296 96.1307 151.278 96.4293 152.387 96.6C153.496 96.7707 154.52 96.8987 155.459 96.984V100.056C154.264 100.995 152.387 101.976 149.827 103C147.352 104.024 144.238 104.536 140.483 104.536C133.059 104.536 128.622 101.933 127.171 96.728H126.531C124.91 98.776 122.648 100.611 119.747 102.232C116.931 103.768 113.432 104.536 109.251 104.536ZM118.851 95.448C120.643 95.448 122.136 95.1067 123.331 94.424C124.526 93.7413 125.422 92.8453 126.019 91.736V71.256L120.131 71.768C116.888 72.024 114.414 73.048 112.707 74.84C111 76.632 110.147 79.832 110.147 84.44C110.147 88.6213 110.958 91.5227 112.579 93.144C114.286 94.68 116.376 95.448 118.851 95.448ZM181.856 104.536C176.053 104.536 171.616 103.171 168.544 100.44C165.557 97.7093 164.064 93.1867 164.064 86.872V44.12H156V41.048C161.035 39.0853 165.387 36.312 169.056 32.728C172.725 29.0587 175.456 24.664 177.248 19.544H184.544V36.568H201.568L199.904 44.12H184.544V85.592C184.544 88.8347 185.099 91.1387 186.208 92.504C187.403 93.8693 189.621 94.552 192.864 94.552C194.4 94.552 196.021 94.424 197.728 94.168C199.435 93.912 200.885 93.656 202.08 93.4V96.984C201.312 97.6667 200.331 98.4773 199.136 99.416C197.941 100.269 196.491 101.08 194.784 101.848C193.163 102.616 191.243 103.256 189.024 103.768C186.891 104.28 184.501 104.536 181.856 104.536ZM204.158 99.544L207.486 98.648C208.51 98.392 209.321 98.136 209.918 97.88C210.601 97.5387 211.113 97.112 211.454 96.6C211.795 96.088 212.009 95.448 212.094 94.68C212.179 93.8267 212.222 92.7173 212.222 91.352V22.744C212.222 21.208 212.179 19.9707 212.094 19.032C212.009 18.0933 211.838 17.3253 211.582 16.728C211.326 16.1307 210.899 15.6613 210.302 15.32C209.79 14.8933 209.107 14.4667 208.254 14.04L203.518 11.736V8.79199L231.678 6.23199L233.086 7.256C233.001 8.536 232.915 9.944 232.83 11.48C232.745 12.8453 232.659 14.4667 232.574 16.344C232.574 18.136 232.574 20.0987 232.574 22.232V30.936C232.574 32.728 232.531 34.392 232.446 35.928C232.446 37.3787 232.403 38.7013 232.318 39.896C232.233 41.2613 232.19 42.4987 232.19 43.608H232.83C236.329 41.2187 240.041 39.1707 243.966 37.464C247.977 35.672 252.329 34.776 257.022 34.776C262.483 34.776 266.622 36.184 269.438 39C272.339 41.816 273.79 46.1253 273.79 51.928V91.352C273.79 92.8027 273.833 93.9547 273.918 94.808C274.003 95.576 274.217 96.216 274.558 96.728C274.899 97.24 275.369 97.624 275.966 97.88C276.563 98.136 277.374 98.392 278.398 98.648L281.726 99.544V103H246.014V99.544L249.086 98.776C250.025 98.52 250.75 98.264 251.262 98.008C251.859 97.752 252.286 97.4107 252.542 96.984C252.883 96.472 253.097 95.7893 253.182 94.936C253.267 94.0827 253.31 92.888 253.31 91.352V56.92C253.31 52.9947 252.585 50.3067 251.134 48.856C249.683 47.4053 247.465 46.68 244.478 46.68C242.259 46.68 240.083 46.8933 237.95 47.32C235.817 47.6613 234.025 48.0027 232.574 48.344V91.352C232.574 92.888 232.617 94.0827 232.702 94.936C232.787 95.7893 232.958 96.472 233.214 96.984C233.555 97.496 233.982 97.88 234.494 98.136C235.091 98.3067 235.859 98.52 236.798 98.776L239.87 99.544V103H204.158V99.544ZM304.376 104.536C298.317 104.536 293.581 103.085 290.168 100.184C286.84 97.1973 285.176 93.016 285.176 87.64C285.176 84.824 285.688 82.392 286.712 80.344C287.736 78.2107 289.229 76.376 291.192 74.84C293.24 73.304 295.672 71.9813 298.488 70.872C301.389 69.7627 304.632 68.7813 308.216 67.928L321.144 64.728V53.592C321.144 48.3013 320.504 44.6747 319.224 42.712C317.944 40.7493 315.555 39.768 312.056 39.768C310.093 39.768 308.728 40.1093 307.96 40.792C307.277 41.3893 306.851 42.584 306.68 44.376C306.339 48.472 305.4 51.3733 303.864 53.08C302.413 54.7867 300.024 55.64 296.696 55.64C293.88 55.64 291.704 54.9573 290.168 53.592C288.717 52.1413 287.992 50.1787 287.992 47.704C287.992 43.608 290.467 40.4507 295.416 38.232C300.365 35.928 307.32 34.776 316.28 34.776C324.301 34.776 330.531 36.1413 334.968 38.872C339.405 41.5173 341.624 45.9973 341.624 52.312V87.768C341.624 90.1573 341.795 91.9067 342.136 93.016C342.563 94.1253 343.373 95.0213 344.568 95.704C345.421 96.1307 346.403 96.4293 347.512 96.6C348.621 96.7707 349.645 96.8987 350.584 96.984V100.056C349.389 100.995 347.512 101.976 344.952 103C342.477 104.024 339.363 104.536 335.608 104.536C328.184 104.536 323.747 101.933 322.296 96.728H321.656C320.035 98.776 317.773 100.611 314.872 102.232C312.056 103.768 308.557 104.536 304.376 104.536ZM313.976 95.448C315.768 95.448 317.261 95.1067 318.456 94.424C319.651 93.7413 320.547 92.8453 321.144 91.736V71.256L315.256 71.768C312.013 72.024 309.539 73.048 307.832 74.84C306.125 76.632 305.272 79.832 305.272 84.44C305.272 88.6213 306.083 91.5227 307.704 93.144C309.411 94.68 311.501 95.448 313.976 95.448ZM352.533 99.544L355.861 98.648C356.885 98.392 357.696 98.136 358.293 97.88C358.976 97.5387 359.488 97.112 359.829 96.6C360.17 96.088 360.384 95.448 360.469 94.68C360.554 93.8267 360.597 92.7173 360.597 91.352V51.544C360.597 50.1787 360.554 49.112 360.469 48.344C360.384 47.4907 360.17 46.808 359.829 46.296C359.488 45.6987 359.018 45.1867 358.421 44.76C357.909 44.3333 357.226 43.8213 356.373 43.224L352.149 40.408V37.848L379.157 34.776L380.565 35.672L380.309 43.864H380.821C384.234 41.3893 387.989 39.256 392.085 37.464C396.266 35.672 400.704 34.776 405.397 34.776C410.858 34.776 414.997 36.184 417.813 39C420.714 41.816 422.165 46.1253 422.165 51.928V91.352C422.165 92.8027 422.208 93.9547 422.293 94.808C422.378 95.576 422.592 96.216 422.933 96.728C423.274 97.24 423.744 97.624 424.341 97.88C424.938 98.136 425.749 98.392 426.773 98.648L430.101 99.544V103H394.389V99.544L397.461 98.776C398.4 98.52 399.125 98.264 399.637 98.008C400.234 97.752 400.661 97.4107 400.917 96.984C401.258 96.472 401.472 95.7893 401.557 94.936C401.642 94.0827 401.685 92.888 401.685 91.352V56.92C401.685 52.9947 400.96 50.3067 399.509 48.856C398.058 47.4053 395.84 46.68 392.853 46.68C390.634 46.68 388.458 46.8933 386.325 47.32C384.192 47.6613 382.4 48.0027 380.949 48.344V91.352C380.949 92.888 380.992 94.0827 381.077 94.936C381.162 95.7893 381.333 96.472 381.589 96.984C381.93 97.496 382.357 97.88 382.869 98.136C383.466 98.3067 384.234 98.52 385.173 98.776L388.245 99.544V103H352.533V99.544ZM460.926 99.416L465.278 98.52C466.217 98.264 466.985 98.008 467.582 97.752C468.265 97.496 468.777 97.0693 469.118 96.472C469.545 95.7893 469.843 94.8933 470.014 93.784C470.185 92.6747 470.27 91.1387 470.27 89.176V28.12C470.27 26.1573 470.185 24.6213 470.014 23.512C469.843 22.4027 469.545 21.5493 469.118 20.952C468.777 20.2693 468.265 19.8 467.582 19.544C466.985 19.288 466.217 19.032 465.278 18.776L460.926 17.88V14.296H504.318C510.974 14.296 517.033 15.1067 522.494 16.728C527.955 18.3493 532.606 20.9093 536.446 24.408C540.371 27.8213 543.401 32.2587 545.534 37.72C547.667 43.096 548.734 49.5387 548.734 57.048C548.734 64.3867 547.667 70.9147 545.534 76.632C543.486 82.264 540.499 87.0427 536.574 90.968C532.649 94.8933 527.913 97.88 522.366 99.928C516.819 101.976 510.59 103 503.678 103H460.926V99.416ZM502.398 97.368C510.334 97.368 515.966 94.296 519.294 88.152C522.707 82.008 524.414 72.664 524.414 60.12C524.414 52.6107 523.945 46.296 523.006 41.176C522.153 35.9707 520.787 31.832 518.91 28.76C517.118 25.6027 514.814 23.3413 511.998 21.976C509.182 20.6107 505.897 19.928 502.142 19.928C500.179 19.928 498.43 20.056 496.894 20.312C495.358 20.4827 494.249 20.7387 493.566 21.08V85.72C493.566 88.28 493.694 90.328 493.95 91.864C494.206 93.3147 494.633 94.4667 495.23 95.32C495.913 96.1733 496.809 96.728 497.918 96.984C499.113 97.24 500.606 97.368 502.398 97.368ZM573.626 104.536C567.567 104.536 562.831 103.085 559.418 100.184C556.09 97.1973 554.426 93.016 554.426 87.64C554.426 84.824 554.938 82.392 555.962 80.344C556.986 78.2107 558.479 76.376 560.442 74.84C562.49 73.304 564.922 71.9813 567.738 70.872C570.639 69.7627 573.882 68.7813 577.466 67.928L590.394 64.728V53.592C590.394 48.3013 589.754 44.6747 588.474 42.712C587.194 40.7493 584.805 39.768 581.306 39.768C579.343 39.768 577.978 40.1093 577.21 40.792C576.527 41.3893 576.101 42.584 575.93 44.376C575.589 48.472 574.65 51.3733 573.114 53.08C571.663 54.7867 569.274 55.64 565.946 55.64C563.13 55.64 560.954 54.9573 559.418 53.592C557.967 52.1413 557.242 50.1787 557.242 47.704C557.242 43.608 559.717 40.4507 564.666 38.232C569.615 35.928 576.57 34.776 585.53 34.776C593.551 34.776 599.781 36.1413 604.218 38.872C608.655 41.5173 610.874 45.9973 610.874 52.312V87.768C610.874 90.1573 611.045 91.9067 611.386 93.016C611.813 94.1253 612.623 95.0213 613.818 95.704C614.671 96.1307 615.653 96.4293 616.762 96.6C617.871 96.7707 618.895 96.8987 619.834 96.984V100.056C618.639 100.995 616.762 101.976 614.202 103C611.727 104.024 608.613 104.536 604.858 104.536C597.434 104.536 592.997 101.933 591.546 96.728H590.906C589.285 98.776 587.023 100.611 584.122 102.232C581.306 103.768 577.807 104.536 573.626 104.536ZM583.226 95.448C585.018 95.448 586.511 95.1067 587.706 94.424C588.901 93.7413 589.797 92.8453 590.394 91.736V71.256L584.506 71.768C581.263 72.024 578.789 73.048 577.082 74.84C575.375 76.632 574.522 79.832 574.522 84.44C574.522 88.6213 575.333 91.5227 576.954 93.144C578.661 94.68 580.751 95.448 583.226 95.448ZM624.722 50.776C623.954 48.984 623.271 47.4907 622.674 46.296C622.162 45.1013 621.607 44.12 621.01 43.352C620.413 42.584 619.815 42.0293 619.218 41.688C618.621 41.2613 617.895 40.92 617.042 40.664L614.61 39.896V36.568H653.138V39.896L649.682 40.792C648.317 41.2187 647.293 41.816 646.61 42.584C646.013 43.2667 645.714 44.4187 645.714 46.04C645.714 46.9787 645.842 48.0027 646.098 49.112C646.439 50.2213 646.866 51.5013 647.378 52.952L658.13 82.52H658.77L669.138 52.952C670.247 49.9653 670.802 47.576 670.802 45.784C670.802 44.3333 670.461 43.2667 669.778 42.584C669.181 41.816 668.199 41.2187 666.834 40.792L663.378 39.896V36.568H687.058V39.896L684.626 40.664C683.773 40.92 683.005 41.304 682.322 41.816C681.725 42.2427 681.127 42.8827 680.53 43.736C680.018 44.504 679.421 45.5707 678.738 46.936C678.141 48.3013 677.458 50.0507 676.69 52.184L656.85 103H645.97L624.722 50.776ZM722.215 104.536C711.036 104.536 702.674 101.421 697.127 95.192C691.58 88.9627 688.807 80.3867 688.807 69.464C688.807 63.9173 689.746 59.0107 691.623 54.744C693.5 50.392 696.018 46.7653 699.175 43.864C702.332 40.8773 705.874 38.616 709.799 37.08C713.81 35.544 717.948 34.776 722.215 34.776C726.652 34.776 730.62 35.3733 734.119 36.568C737.703 37.6773 740.732 39.512 743.207 42.072C745.682 44.632 747.602 47.96 748.967 52.056C750.418 56.0667 751.186 60.9733 751.271 66.776H709.031C709.116 72.0667 709.671 76.4187 710.695 79.832C711.719 83.2453 713.127 85.976 714.919 88.024C716.796 90.072 719.015 91.5227 721.575 92.376C724.22 93.144 727.207 93.528 730.535 93.528C734.546 93.528 738.044 93.0587 741.031 92.12C744.103 91.096 746.876 89.944 749.351 88.664V92.888C748.242 94.168 746.791 95.4907 744.999 96.856C743.292 98.2213 741.287 99.5013 738.983 100.696C736.679 101.805 734.119 102.701 731.303 103.384C728.487 104.152 725.458 104.536 722.215 104.536ZM721.191 39.64C719.57 39.64 718.034 40.0667 716.583 40.92C715.218 41.688 713.98 42.968 712.871 44.76C711.762 46.552 710.866 48.856 710.183 51.672C709.5 54.488 709.116 57.9013 709.031 61.912L730.919 60.76C730.919 56.92 730.748 53.6773 730.407 51.032C730.151 48.3013 729.639 46.1253 728.871 44.504C728.188 42.7973 727.207 41.56 725.927 40.792C724.647 40.024 723.068 39.64 721.191 39.64ZM755.158 99.544L758.486 98.648C759.51 98.392 760.321 98.136 760.918 97.88C761.601 97.5387 762.113 97.112 762.454 96.6C762.795 96.088 763.009 95.448 763.094 94.68C763.179 93.8267 763.222 92.7173 763.222 91.352V51.544C763.222 50.1787 763.179 49.112 763.094 48.344C763.009 47.4907 762.795 46.808 762.454 46.296C762.113 45.6987 761.643 45.1867 761.046 44.76C760.534 44.3333 759.851 43.8213 758.998 43.224L754.774 40.408V37.848L781.782 34.776L783.19 35.672L782.934 43.864H783.446C786.859 41.3893 790.614 39.256 794.71 37.464C798.891 35.672 803.329 34.776 808.022 34.776C813.483 34.776 817.622 36.184 820.438 39C823.339 41.816 824.79 46.1253 824.79 51.928V91.352C824.79 92.8027 824.833 93.9547 824.918 94.808C825.003 95.576 825.217 96.216 825.558 96.728C825.899 97.24 826.369 97.624 826.966 97.88C827.563 98.136 828.374 98.392 829.398 98.648L832.726 99.544V103H797.014V99.544L800.086 98.776C801.025 98.52 801.75 98.264 802.262 98.008C802.859 97.752 803.286 97.4107 803.542 96.984C803.883 96.472 804.097 95.7893 804.182 94.936C804.267 94.0827 804.31 92.888 804.31 91.352V56.92C804.31 52.9947 803.585 50.3067 802.134 48.856C800.683 47.4053 798.465 46.68 795.478 46.68C793.259 46.68 791.083 46.8933 788.95 47.32C786.817 47.6613 785.025 48.0027 783.574 48.344V91.352C783.574 92.888 783.617 94.0827 783.702 94.936C783.787 95.7893 783.958 96.472 784.214 96.984C784.555 97.496 784.982 97.88 785.494 98.136C786.091 98.3067 786.859 98.52 787.798 98.776L790.87 99.544V103H755.158V99.544ZM835.408 125.912L838.736 125.016C839.76 124.76 840.571 124.461 841.168 124.12C841.851 123.864 842.363 123.48 842.704 122.968C843.045 122.456 843.259 121.773 843.344 120.92C843.429 120.152 843.472 119.043 843.472 117.592V51.544C843.472 50.1787 843.429 49.112 843.344 48.344C843.259 47.4907 843.045 46.808 842.704 46.296C842.363 45.6987 841.893 45.1867 841.296 44.76C840.784 44.3333 840.101 43.8213 839.248 43.224L835.024 40.408V37.848L862.032 34.776L863.44 35.672L863.184 43.608H863.824C866.555 41.304 869.669 39.256 873.168 37.464C876.752 35.672 880.805 34.776 885.328 34.776C888.4 34.776 891.429 35.3307 894.416 36.44C897.403 37.464 900.048 39.2133 902.352 41.688C904.741 44.1627 906.661 47.4053 908.112 51.416C909.648 55.4267 910.416 60.376 910.416 66.264C910.416 72.92 909.477 78.68 907.6 83.544C905.808 88.3227 903.248 92.2907 899.92 95.448C896.677 98.52 892.795 100.824 888.272 102.36C883.749 103.811 878.8 104.536 873.424 104.536C872.059 104.536 870.437 104.408 868.56 104.152C866.768 103.981 865.147 103.683 863.696 103.256V105.432C863.696 106.115 863.696 106.925 863.696 107.864C863.781 108.888 863.824 109.955 863.824 111.064V117.592C863.824 119.043 863.867 120.195 863.952 121.048C864.037 121.901 864.208 122.584 864.464 123.096C864.805 123.608 865.275 123.949 865.872 124.12C866.469 124.376 867.28 124.632 868.304 124.888L872.784 125.912V129.368H835.408V125.912ZM873.936 99.416C876.496 99.416 878.715 99.032 880.592 98.264C882.555 97.4107 884.176 95.9173 885.456 93.784C886.736 91.6507 887.717 88.7493 888.4 85.08C889.083 81.3253 889.424 76.504 889.424 70.616C889.424 66.008 889.083 62.168 888.4 59.096C887.717 55.9387 886.736 53.3787 885.456 51.416C884.176 49.4533 882.555 48.0453 880.592 47.192C878.715 46.3387 876.581 45.912 874.192 45.912C871.632 45.912 869.499 46.2107 867.792 46.808C866.171 47.32 864.848 47.7893 863.824 48.216V94.808C865.019 96.1733 866.427 97.2827 868.048 98.136C869.755 98.9893 871.717 99.416 873.936 99.416ZM951.745 104.536C947.137 104.536 942.7 103.853 938.433 102.488C934.252 101.037 930.582 98.8613 927.425 95.96C924.268 93.0587 921.75 89.4747 919.873 85.208C917.996 80.856 917.057 75.736 917.057 69.848C917.057 63.704 918.038 58.4133 920.001 53.976C922.049 49.5387 924.694 45.912 927.937 43.096C931.18 40.28 934.849 38.1893 938.945 36.824C943.126 35.4587 947.393 34.776 951.745 34.776C956.353 34.776 960.748 35.5013 964.929 36.952C969.196 38.3173 972.908 40.4507 976.065 43.352C979.308 46.168 981.868 49.752 983.745 54.104C985.622 58.3707 986.561 63.4053 986.561 69.208C986.561 75.352 985.58 80.6427 983.617 85.08C981.654 89.5173 979.052 93.1867 975.809 96.088C972.566 98.9893 968.854 101.123 964.673 102.488C960.492 103.853 956.182 104.536 951.745 104.536ZM952.129 99.544C954.006 99.544 955.756 99.2027 957.377 98.52C958.998 97.752 960.364 96.344 961.473 94.296C962.582 92.1627 963.436 89.2187 964.033 85.464C964.716 81.624 965.057 76.632 965.057 70.488C965.057 64.0027 964.758 58.7547 964.161 54.744C963.564 50.7333 962.668 47.6187 961.473 45.4C960.278 43.1813 958.828 41.688 957.121 40.92C955.414 40.152 953.494 39.768 951.361 39.768C949.313 39.768 947.478 40.1947 945.857 41.048C944.321 41.9013 942.998 43.3947 941.889 45.528C940.865 47.576 940.054 50.4347 939.457 54.104C938.86 57.688 938.561 62.2107 938.561 67.672C938.561 74.2427 938.817 79.6187 939.329 83.8C939.926 87.896 940.78 91.1387 941.889 93.528C942.998 95.832 944.406 97.4107 946.113 98.264C947.82 99.1173 949.825 99.544 952.129 99.544ZM990.408 99.544L993.736 98.648C994.76 98.392 995.571 98.136 996.168 97.88C996.851 97.5387 997.363 97.112 997.704 96.6C998.045 96.088 998.259 95.448 998.344 94.68C998.429 93.8267 998.472 92.7173 998.472 91.352V51.544C998.472 50.1787 998.429 49.112 998.344 48.344C998.259 47.4907 998.045 46.808 997.704 46.296C997.363 45.6987 996.893 45.1867 996.296 44.76C995.784 44.3333 995.101 43.8213 994.248 43.224L990.024 40.408V37.848L1017.03 34.776L1018.44 35.8L1018.18 44.632H1018.7C1019.72 43.608 1020.91 42.4987 1022.28 41.304C1023.65 40.1093 1025.14 39.0427 1026.76 38.104C1028.38 37.1653 1030.09 36.3973 1031.88 35.8C1033.67 35.1173 1035.51 34.776 1037.38 34.776C1040.46 34.776 1042.85 35.5867 1044.55 37.208C1046.34 38.8293 1047.24 41.2187 1047.24 44.376C1047.24 47.448 1046.39 49.8373 1044.68 51.544C1042.97 53.1653 1040.88 53.976 1038.41 53.976C1036.96 53.976 1035.72 53.8907 1034.7 53.72C1033.76 53.464 1032.9 53.1227 1032.14 52.696C1031.45 52.184 1030.81 51.5867 1030.22 50.904C1029.7 50.136 1029.15 49.24 1028.55 48.216C1028.13 47.5333 1027.7 47.1067 1027.27 46.936C1026.93 46.68 1026.46 46.552 1025.86 46.552C1024.67 46.552 1023.43 46.8933 1022.15 47.576C1020.87 48.2587 1019.76 49.0267 1018.82 49.88V91.352C1018.82 92.888 1018.87 94.0827 1018.95 94.936C1019.04 95.7893 1019.21 96.472 1019.46 96.984C1019.81 97.496 1020.27 97.88 1020.87 98.136C1021.47 98.3067 1022.24 98.4773 1023.18 98.648L1027.4 99.544V103H990.408V99.544ZM1074.73 104.536C1068.93 104.536 1064.49 103.171 1061.42 100.44C1058.43 97.7093 1056.94 93.1867 1056.94 86.872V44.12H1048.88V41.048C1053.91 39.0853 1058.26 36.312 1061.93 32.728C1065.6 29.0587 1068.33 24.664 1070.12 19.544H1077.42V36.568H1094.44L1092.78 44.12H1077.42V85.592C1077.42 88.8347 1077.97 91.1387 1079.08 92.504C1080.28 93.8693 1082.5 94.552 1085.74 94.552C1087.28 94.552 1088.9 94.424 1090.6 94.168C1092.31 93.912 1093.76 93.656 1094.96 93.4V96.984C1094.19 97.6667 1093.21 98.4773 1092.01 99.416C1090.82 100.269 1089.37 101.08 1087.66 101.848C1086.04 102.616 1084.12 103.256 1081.9 103.768C1079.77 104.28 1077.38 104.536 1074.73 104.536Z" fill="white"/>
<path d="M1143.52 46L1135.2 22.7188H1139.67L1143.88 34.9531C1144.19 35.9323 1144.53 37.026 1144.89 38.2344C1145.27 39.4323 1145.68 40.7708 1146.12 42.25C1146.56 40.7708 1146.96 39.4323 1147.33 38.2344C1147.69 37.026 1148.03 35.9323 1148.33 34.9531L1152.39 22.7188H1156.81L1148.66 46H1143.52ZM1158.78 46V29.5H1162.72V46H1158.78ZM1160.75 27.0469C1160.07 27.0469 1159.51 26.8333 1159.06 26.4062C1158.61 25.9688 1158.39 25.4323 1158.39 24.7969C1158.39 24.1615 1158.61 23.6302 1159.06 23.2031C1159.51 22.776 1160.07 22.5625 1160.75 22.5625C1161.42 22.5625 1161.97 22.776 1162.42 23.2031C1162.87 23.6302 1163.09 24.1615 1163.09 24.7969C1163.09 25.4323 1162.87 25.9688 1162.42 26.4062C1161.97 26.8333 1161.42 27.0469 1160.75 27.0469ZM1172.59 46.3281C1171.16 46.3281 1169.9 45.9688 1168.83 45.25C1167.76 44.5312 1166.92 43.5312 1166.33 42.25C1165.74 40.9583 1165.45 39.4531 1165.45 37.7344C1165.45 36.0469 1165.75 34.5625 1166.34 33.2812C1166.94 31.9896 1167.77 30.9844 1168.84 30.2656C1169.92 29.5365 1171.16 29.1719 1172.56 29.1719C1173.64 29.1719 1174.6 29.3906 1175.45 29.8281C1176.31 30.2656 1177 30.9375 1177.53 31.8438H1177.56V22.7188H1181.5V46H1177.62V43.4844H1177.59C1177.07 44.4427 1176.38 45.1562 1175.5 45.625C1174.64 46.0938 1173.67 46.3281 1172.59 46.3281ZM1173.52 43.0312C1174.81 43.0312 1175.84 42.5521 1176.61 41.5938C1177.39 40.625 1177.78 39.3385 1177.78 37.7344C1177.78 36.1302 1177.39 34.849 1176.61 33.8906C1175.84 32.9219 1174.81 32.4375 1173.52 32.4375C1172.3 32.4375 1171.31 32.8958 1170.56 33.8125C1169.81 34.7292 1169.44 36.0365 1169.44 37.7344C1169.44 39.4427 1169.81 40.7552 1170.56 41.6719C1171.31 42.5781 1172.3 43.0312 1173.52 43.0312ZM1192.28 46.375C1190.64 46.375 1189.21 46.0052 1188 45.2656C1186.79 44.526 1185.86 43.5104 1185.2 42.2188C1184.56 40.9167 1184.23 39.4323 1184.23 37.7656C1184.23 36.0885 1184.57 34.6042 1185.23 33.3125C1185.91 32.0104 1186.84 30.9896 1188.03 30.25C1189.22 29.5 1190.58 29.125 1192.12 29.125C1193.71 29.125 1195.09 29.4896 1196.28 30.2188C1197.47 30.9479 1198.39 31.9583 1199.05 33.25C1199.7 34.5312 1200.03 36.0156 1200.03 37.7031V38.7812H1188.09C1188.15 40.125 1188.54 41.2083 1189.28 42.0312C1190.02 42.8542 1191.05 43.2656 1192.38 43.2656C1193.36 43.2656 1194.18 43.0521 1194.83 42.625C1195.47 42.1875 1195.91 41.6146 1196.14 40.9062H1199.83C1199.62 41.9792 1199.16 42.9271 1198.45 43.75C1197.76 44.5729 1196.88 45.2188 1195.81 45.6875C1194.75 46.1458 1193.57 46.375 1192.28 46.375ZM1188.12 36.0625H1196.25C1196.12 34.8854 1195.7 33.9583 1194.97 33.2812C1194.25 32.5938 1193.32 32.25 1192.19 32.25C1191.04 32.25 1190.11 32.5938 1189.39 33.2812C1188.68 33.9583 1188.26 34.8854 1188.12 36.0625ZM1210.09 46.375C1208.47 46.375 1207.05 46.0156 1205.83 45.2969C1204.61 44.5677 1203.66 43.5573 1202.97 42.2656C1202.29 40.974 1201.95 39.474 1201.95 37.7656C1201.95 36.0573 1202.29 34.5573 1202.97 33.2656C1203.66 31.9635 1204.61 30.9479 1205.83 30.2188C1207.05 29.4896 1208.47 29.125 1210.09 29.125C1211.71 29.125 1213.12 29.4896 1214.34 30.2188C1215.57 30.9479 1216.53 31.9635 1217.2 33.2656C1217.89 34.5573 1218.23 36.0573 1218.23 37.7656C1218.23 39.474 1217.89 40.974 1217.2 42.2656C1216.53 43.5573 1215.57 44.5677 1214.34 45.2969C1213.12 46.0156 1211.71 46.375 1210.09 46.375ZM1210.09 43.0781C1211.35 43.0781 1212.36 42.6042 1213.11 41.6562C1213.86 40.7083 1214.23 39.4115 1214.23 37.7656C1214.23 36.1198 1213.86 34.8177 1213.11 33.8594C1212.36 32.901 1211.35 32.4219 1210.09 32.4219C1208.82 32.4219 1207.81 32.901 1207.06 33.8594C1206.31 34.8073 1205.94 36.1094 1205.94 37.7656C1205.94 39.4115 1206.31 40.7083 1207.06 41.6562C1207.81 42.6042 1208.82 43.0781 1210.09 43.0781ZM1234.84 46.3281C1232.59 46.3281 1230.8 45.7031 1229.47 44.4531C1228.14 43.2031 1227.47 41.4167 1227.47 39.0938V37.625H1231.44V39.1094C1231.44 40.3073 1231.74 41.224 1232.34 41.8594C1232.96 42.4844 1233.78 42.7969 1234.8 42.7969C1235.83 42.7969 1236.65 42.4844 1237.25 41.8594C1237.86 41.224 1238.17 40.3073 1238.17 39.1094V22.7188H1242.31V39.1562C1242.31 41.4583 1241.64 43.2292 1240.28 44.4688C1238.94 45.7083 1237.12 46.3281 1234.84 46.3281ZM1253.28 46.375C1251.66 46.375 1250.23 46.0156 1249.02 45.2969C1247.8 44.5677 1246.84 43.5573 1246.16 42.2656C1245.48 40.974 1245.14 39.474 1245.14 37.7656C1245.14 36.0573 1245.48 34.5573 1246.16 33.2656C1246.84 31.9635 1247.8 30.9479 1249.02 30.2188C1250.23 29.4896 1251.66 29.125 1253.28 29.125C1254.9 29.125 1256.31 29.4896 1257.53 30.2188C1258.76 30.9479 1259.71 31.9635 1260.39 33.2656C1261.08 34.5573 1261.42 36.0573 1261.42 37.7656C1261.42 39.474 1261.08 40.974 1260.39 42.2656C1259.71 43.5573 1258.76 44.5677 1257.53 45.2969C1256.31 46.0156 1254.9 46.375 1253.28 46.375ZM1253.28 43.0781C1254.54 43.0781 1255.55 42.6042 1256.3 41.6562C1257.05 40.7083 1257.42 39.4115 1257.42 37.7656C1257.42 36.1198 1257.05 34.8177 1256.3 33.8594C1255.55 32.901 1254.54 32.4219 1253.28 32.4219C1252.01 32.4219 1251 32.901 1250.25 33.8594C1249.5 34.8073 1249.12 36.1094 1249.12 37.7656C1249.12 39.4115 1249.5 40.7083 1250.25 41.6562C1251 42.6042 1252.01 43.0781 1253.28 43.0781ZM1270.03 46.3281C1268.3 46.3281 1266.89 45.7708 1265.8 44.6562C1264.7 43.5417 1264.16 41.9271 1264.16 39.8125V29.5H1268.09V39.1875C1268.09 40.3958 1268.39 41.3125 1268.97 41.9375C1269.55 42.5625 1270.37 42.875 1271.42 42.875C1272.46 42.875 1273.32 42.5521 1274 41.9062C1274.69 41.2604 1275.03 40.2344 1275.03 38.8281V29.5H1278.98V46H1275.11V43.4688C1273.95 45.375 1272.26 46.3281 1270.03 46.3281ZM1282.5 46V29.5H1286.3V32.2344H1286.34C1286.65 31.2969 1287.12 30.5833 1287.77 30.0938C1288.42 29.5938 1289.28 29.3438 1290.34 29.3438C1290.61 29.3438 1290.85 29.3542 1291.06 29.375C1291.28 29.3854 1291.47 29.3958 1291.62 29.4062V32.9062C1291.48 32.8854 1291.23 32.8594 1290.88 32.8281C1290.52 32.7969 1290.15 32.7812 1289.77 32.7812C1288.83 32.7812 1288.04 33.1042 1287.39 33.75C1286.76 34.3958 1286.44 35.3646 1286.44 36.6562V46H1282.5ZM1298.03 36.6719V46H1294.09V29.5H1297.97V32.0312C1299.11 30.125 1300.8 29.1719 1303.03 29.1719C1304.76 29.1719 1306.17 29.7292 1307.27 30.8438C1308.37 31.9583 1308.92 33.5729 1308.92 35.6875V46H1304.97V36.3125C1304.97 35.1042 1304.68 34.1875 1304.09 33.5625C1303.51 32.9375 1302.69 32.625 1301.64 32.625C1300.61 32.625 1299.75 32.9479 1299.06 33.5938C1298.38 34.2396 1298.03 35.2656 1298.03 36.6719ZM1317.47 46.2656C1315.82 46.2656 1314.46 45.8542 1313.38 45.0312C1312.3 44.1979 1311.77 42.9583 1311.77 41.3125C1311.77 40.0625 1312.07 39.099 1312.67 38.4219C1313.29 37.7344 1314.08 37.2344 1315.06 36.9219C1316.05 36.6094 1317.11 36.3958 1318.25 36.2812C1319.78 36.1042 1320.85 35.9479 1321.45 35.8125C1322.06 35.6771 1322.36 35.3281 1322.36 34.7656V34.6406C1322.36 33.9323 1322.09 33.3542 1321.55 32.9062C1321.02 32.4583 1320.28 32.2344 1319.34 32.2344C1318.39 32.2344 1317.6 32.4583 1317 32.9062C1316.41 33.3542 1316.08 33.9271 1316.03 34.625H1312.23C1312.33 32.9896 1313.01 31.6719 1314.28 30.6719C1315.55 29.6719 1317.27 29.1719 1319.42 29.1719C1321.57 29.1719 1323.24 29.6719 1324.45 30.6719C1325.66 31.6719 1326.27 33.0312 1326.27 34.75V46H1322.39V43.6719H1322.33C1321.93 44.401 1321.36 45.0156 1320.61 45.5156C1319.86 46.0156 1318.81 46.2656 1317.47 46.2656ZM1318.44 43.3438C1319.73 43.3438 1320.71 43.0104 1321.38 42.3438C1322.04 41.6667 1322.38 40.849 1322.38 39.8906V38.1094C1322.14 38.2656 1321.67 38.4115 1320.98 38.5469C1320.3 38.6719 1319.55 38.7969 1318.73 38.9219C1317.89 39.0469 1317.16 39.2865 1316.53 39.6406C1315.92 39.9844 1315.61 40.5312 1315.61 41.2812C1315.61 41.9271 1315.86 42.4323 1316.38 42.7969C1316.89 43.1615 1317.57 43.3438 1318.44 43.3438ZM1333.69 22.7188V46H1329.75V22.7188H1333.69ZM1337.19 46V29.5H1341.12V46H1337.19ZM1339.16 27.0469C1338.48 27.0469 1337.92 26.8333 1337.47 26.4062C1337.02 25.9688 1336.8 25.4323 1336.8 24.7969C1336.8 24.1615 1337.02 23.6302 1337.47 23.2031C1337.92 22.776 1338.48 22.5625 1339.16 22.5625C1339.82 22.5625 1340.38 22.776 1340.83 23.2031C1341.28 23.6302 1341.5 24.1615 1341.5 24.7969C1341.5 25.4323 1341.28 25.9688 1340.83 26.4062C1340.38 26.8333 1339.82 27.0469 1339.16 27.0469ZM1351.09 46.3906C1349.08 46.3906 1347.4 45.9219 1346.05 44.9844C1344.7 44.0365 1343.97 42.6771 1343.84 40.9062H1347.73C1347.82 41.7083 1348.14 42.3333 1348.7 42.7812C1349.27 43.2188 1350.04 43.4375 1351.03 43.4375C1351.98 43.4375 1352.72 43.25 1353.27 42.875C1353.82 42.5 1354.09 42.0208 1354.09 41.4375C1354.09 40.9375 1353.89 40.5365 1353.48 40.2344C1353.08 39.9323 1352.53 39.7083 1351.84 39.5625L1349.03 38.9844C1345.82 38.3177 1344.22 36.7292 1344.22 34.2188C1344.22 32.6979 1344.82 31.474 1346.03 30.5469C1347.24 29.6094 1348.85 29.1406 1350.86 29.1406C1352.86 29.1406 1354.48 29.6354 1355.73 30.625C1356.99 31.6042 1357.65 32.9427 1357.69 34.6406H1353.98C1353.96 33.901 1353.68 33.2917 1353.12 32.8125C1352.57 32.3333 1351.85 32.0938 1350.95 32.0938C1350.09 32.0938 1349.41 32.2865 1348.91 32.6719C1348.41 33.0573 1348.16 33.5312 1348.16 34.0938C1348.16 34.5833 1348.35 34.9844 1348.73 35.2969C1349.12 35.599 1349.66 35.8281 1350.34 35.9844L1353.31 36.5938C1354.95 36.9375 1356.15 37.4792 1356.92 38.2188C1357.7 38.9583 1358.09 39.9323 1358.09 41.1406C1358.09 42.2135 1357.79 43.1458 1357.19 43.9375C1356.59 44.7188 1355.77 45.3229 1354.72 45.75C1353.67 46.1771 1352.46 46.3906 1351.09 46.3906ZM1360.78 46V29.5H1364.59V32.3594C1365.09 31.2969 1365.79 30.5 1366.67 29.9688C1367.56 29.4375 1368.52 29.1719 1369.56 29.1719C1370.68 29.1719 1371.66 29.4583 1372.52 30.0312C1373.37 30.5938 1373.97 31.349 1374.31 32.2969C1374.75 31.349 1375.43 30.5938 1376.36 30.0312C1377.29 29.4583 1378.35 29.1719 1379.56 29.1719C1381.12 29.1719 1382.44 29.6771 1383.5 30.6875C1384.56 31.6979 1385.09 33.1719 1385.09 35.1094V46H1381.14V35.6719C1381.14 34.5781 1380.84 33.7812 1380.23 33.2812C1379.64 32.7708 1378.92 32.5156 1378.08 32.5156C1377.08 32.5156 1376.29 32.8281 1375.7 33.4531C1375.13 34.0781 1374.84 34.8854 1374.84 35.875V46H1371.02V35.4844C1371.02 34.5885 1370.73 33.8698 1370.17 33.3281C1369.61 32.7865 1368.89 32.5156 1368.02 32.5156C1367.13 32.5156 1366.36 32.8281 1365.7 33.4531C1365.05 34.0677 1364.72 34.9688 1364.72 36.1562V46H1360.78ZM1387.62 50.7188L1388.86 42.3906H1392.75L1390.42 50.7188H1387.62ZM1136.94 75V51.7188H1145.83C1147.54 51.7188 1149.01 52.0208 1150.25 52.625C1151.5 53.2292 1152.46 54.0885 1153.12 55.2031C1153.8 56.3177 1154.14 57.6354 1154.14 59.1562C1154.14 60.6875 1153.8 62.0104 1153.11 63.125C1152.42 64.2396 1151.45 65.1042 1150.19 65.7188C1148.94 66.3229 1147.46 66.625 1145.75 66.625H1141.06V75H1136.94ZM1141.06 63.0938H1145.59C1146.98 63.0938 1148.07 62.7448 1148.88 62.0469C1149.68 61.3385 1150.08 60.375 1150.08 59.1562C1150.08 57.9479 1149.68 56.9948 1148.88 56.2969C1148.07 55.599 1146.98 55.25 1145.59 55.25H1141.06V63.0938ZM1160.69 65.6719V75H1156.75V51.7188H1160.69V60.9219C1161.83 59.0885 1163.5 58.1719 1165.69 58.1719C1167.42 58.1719 1168.83 58.7292 1169.92 59.8438C1171.03 60.9583 1171.58 62.5729 1171.58 64.6875V75H1167.62V65.3125C1167.62 64.1042 1167.33 63.1875 1166.75 62.5625C1166.17 61.9375 1165.35 61.625 1164.3 61.625C1163.27 61.625 1162.41 61.9479 1161.72 62.5938C1161.03 63.2396 1160.69 64.2656 1160.69 65.6719ZM1182.47 75.375C1180.84 75.375 1179.42 75.0156 1178.2 74.2969C1176.98 73.5677 1176.03 72.5573 1175.34 71.2656C1174.67 69.974 1174.33 68.474 1174.33 66.7656C1174.33 65.0573 1174.67 63.5573 1175.34 62.2656C1176.03 60.9635 1176.98 59.9479 1178.2 59.2188C1179.42 58.4896 1180.84 58.125 1182.47 58.125C1184.08 58.125 1185.5 58.4896 1186.72 59.2188C1187.95 59.9479 1188.9 60.9635 1189.58 62.2656C1190.27 63.5573 1190.61 65.0573 1190.61 66.7656C1190.61 68.474 1190.27 69.974 1189.58 71.2656C1188.9 72.5573 1187.95 73.5677 1186.72 74.2969C1185.5 75.0156 1184.08 75.375 1182.47 75.375ZM1182.47 72.0781C1183.73 72.0781 1184.73 71.6042 1185.48 70.6562C1186.23 69.7083 1186.61 68.4115 1186.61 66.7656C1186.61 65.1198 1186.23 63.8177 1185.48 62.8594C1184.73 61.901 1183.73 61.4219 1182.47 61.4219C1181.2 61.4219 1180.19 61.901 1179.44 62.8594C1178.69 63.8073 1178.31 65.1094 1178.31 66.7656C1178.31 68.4115 1178.69 69.7083 1179.44 70.6562C1180.19 71.6042 1181.2 72.0781 1182.47 72.0781ZM1202.05 58.5V61.6719H1198.69V70.2656C1198.69 70.8594 1198.81 71.2708 1199.05 71.5C1199.29 71.7188 1199.72 71.8281 1200.36 71.8281H1202.05V75H1199.67C1197.99 75 1196.75 74.6615 1195.94 73.9844C1195.14 73.3073 1194.73 72.2604 1194.73 70.8438V61.6719H1191.86V58.5H1194.73V54H1198.69V58.5H1202.05ZM1211.66 75.375C1210.03 75.375 1208.61 75.0156 1207.39 74.2969C1206.17 73.5677 1205.22 72.5573 1204.53 71.2656C1203.85 69.974 1203.52 68.474 1203.52 66.7656C1203.52 65.0573 1203.85 63.5573 1204.53 62.2656C1205.22 60.9635 1206.17 59.9479 1207.39 59.2188C1208.61 58.4896 1210.03 58.125 1211.66 58.125C1213.27 58.125 1214.69 58.4896 1215.91 59.2188C1217.14 59.9479 1218.09 60.9635 1218.77 62.2656C1219.45 63.5573 1219.8 65.0573 1219.8 66.7656C1219.8 68.474 1219.45 69.974 1218.77 71.2656C1218.09 72.5573 1217.14 73.5677 1215.91 74.2969C1214.69 75.0156 1213.27 75.375 1211.66 75.375ZM1211.66 72.0781C1212.92 72.0781 1213.92 71.6042 1214.67 70.6562C1215.42 69.7083 1215.8 68.4115 1215.8 66.7656C1215.8 65.1198 1215.42 63.8177 1214.67 62.8594C1213.92 61.901 1212.92 61.4219 1211.66 61.4219C1210.39 61.4219 1209.38 61.901 1208.62 62.8594C1207.88 63.8073 1207.5 65.1094 1207.5 66.7656C1207.5 68.4115 1207.88 69.7083 1208.62 70.6562C1209.38 71.6042 1210.39 72.0781 1211.66 72.0781ZM1230.02 81.75C1227.84 81.75 1226.11 81.2812 1224.83 80.3438C1223.55 79.4062 1222.8 78.1354 1222.58 76.5312H1226.44C1226.62 77.2396 1227.04 77.776 1227.67 78.1406C1228.31 78.5156 1229.09 78.7031 1230.02 78.7031C1231.24 78.7031 1232.2 78.3698 1232.88 77.7031C1233.56 77.0365 1233.91 76.0729 1233.91 74.8125V72.2969H1233.89C1233.36 73.2656 1232.67 73.9792 1231.81 74.4375C1230.96 74.8854 1229.99 75.1094 1228.91 75.1094C1227.47 75.1094 1226.21 74.75 1225.14 74.0312C1224.07 73.3125 1223.23 72.3229 1222.64 71.0625C1222.06 69.7917 1221.77 68.3281 1221.77 66.6719C1221.77 65.0052 1222.06 63.5312 1222.66 62.25C1223.25 60.9688 1224.08 59.9688 1225.16 59.25C1226.23 58.5312 1227.47 58.1719 1228.88 58.1719C1229.95 58.1719 1230.92 58.401 1231.78 58.8594C1232.66 59.3073 1233.36 60.0052 1233.91 60.9531H1233.92V58.5H1237.81V74.5781C1237.81 76.276 1237.47 77.651 1236.8 78.7031C1236.12 79.7656 1235.19 80.5365 1234.02 81.0156C1232.84 81.5052 1231.51 81.75 1230.02 81.75ZM1229.83 71.8594C1231.12 71.8594 1232.15 71.3854 1232.92 70.4375C1233.7 69.4792 1234.09 68.2083 1234.09 66.625C1234.09 65.0417 1233.7 63.776 1232.92 62.8281C1232.15 61.8698 1231.12 61.3906 1229.83 61.3906C1228.61 61.3906 1227.62 61.8438 1226.88 62.75C1226.12 63.6562 1225.75 64.9479 1225.75 66.625C1225.75 68.3125 1226.12 69.6094 1226.88 70.5156C1227.62 71.4115 1228.61 71.8594 1229.83 71.8594ZM1241.31 75V58.5H1245.11V61.2344H1245.16C1245.46 60.2969 1245.93 59.5833 1246.58 59.0938C1247.23 58.5938 1248.09 58.3438 1249.16 58.3438C1249.43 58.3438 1249.67 58.3542 1249.88 58.375C1250.09 58.3854 1250.28 58.3958 1250.44 58.4062V61.9062C1250.29 61.8854 1250.04 61.8594 1249.69 61.8281C1249.33 61.7969 1248.96 61.7812 1248.58 61.7812C1247.64 61.7812 1246.85 62.1042 1246.2 62.75C1245.57 63.3958 1245.25 64.3646 1245.25 65.6562V75H1241.31ZM1257.44 75.2656C1255.79 75.2656 1254.43 74.8542 1253.34 74.0312C1252.27 73.1979 1251.73 71.9583 1251.73 70.3125C1251.73 69.0625 1252.04 68.099 1252.64 67.4219C1253.26 66.7344 1254.05 66.2344 1255.03 65.9219C1256.02 65.6094 1257.08 65.3958 1258.22 65.2812C1259.75 65.1042 1260.82 64.9479 1261.42 64.8125C1262.03 64.6771 1262.33 64.3281 1262.33 63.7656V63.6406C1262.33 62.9323 1262.06 62.3542 1261.52 61.9062C1260.98 61.4583 1260.25 61.2344 1259.31 61.2344C1258.35 61.2344 1257.57 61.4583 1256.97 61.9062C1256.38 62.3542 1256.05 62.9271 1256 63.625H1252.2C1252.3 61.9896 1252.98 60.6719 1254.25 59.6719C1255.52 58.6719 1257.23 58.1719 1259.39 58.1719C1261.54 58.1719 1263.21 58.6719 1264.42 59.6719C1265.63 60.6719 1266.23 62.0312 1266.23 63.75V75H1262.36V72.6719H1262.3C1261.9 73.401 1261.33 74.0156 1260.58 74.5156C1259.83 75.0156 1258.78 75.2656 1257.44 75.2656ZM1258.41 72.3438C1259.7 72.3438 1260.68 72.0104 1261.34 71.3438C1262.01 70.6667 1262.34 69.849 1262.34 68.8906V67.1094C1262.1 67.2656 1261.64 67.4115 1260.95 67.5469C1260.27 67.6719 1259.52 67.7969 1258.7 67.9219C1257.86 68.0469 1257.12 68.2865 1256.5 68.6406C1255.89 68.9844 1255.58 69.5312 1255.58 70.2812C1255.58 70.9271 1255.83 71.4323 1256.34 71.7969C1256.85 72.1615 1257.54 72.3438 1258.41 72.3438ZM1269.72 81.5312V58.5H1273.59V60.7969H1273.64C1274.16 59.9219 1274.86 59.2656 1275.73 58.8281C1276.61 58.3906 1277.58 58.1719 1278.64 58.1719C1280.06 58.1719 1281.3 58.5365 1282.36 59.2656C1283.43 59.9844 1284.27 60.9896 1284.86 62.2812C1285.46 63.5625 1285.77 65.0469 1285.77 66.7344C1285.77 68.4531 1285.47 69.9583 1284.88 71.25C1284.29 72.5312 1283.46 73.5312 1282.39 74.25C1281.32 74.9688 1280.06 75.3281 1278.62 75.3281C1277.54 75.3281 1276.58 75.0938 1275.73 74.625C1274.9 74.1562 1274.22 73.4531 1273.7 72.5156H1273.66V81.5312H1269.72ZM1277.7 72.0312C1278.92 72.0312 1279.91 71.5781 1280.66 70.6719C1281.41 69.7552 1281.78 68.4427 1281.78 66.7344C1281.78 65.0365 1281.41 63.7292 1280.66 62.8125C1279.91 61.8958 1278.92 61.4375 1277.7 61.4375C1276.41 61.4375 1275.38 61.9219 1274.59 62.8906C1273.82 63.849 1273.44 65.1302 1273.44 66.7344C1273.44 68.3385 1273.82 69.625 1274.59 70.5938C1275.38 71.5521 1276.41 72.0312 1277.7 72.0312ZM1292.44 65.6719V75H1288.5V51.7188H1292.44V60.9219C1293.58 59.0885 1295.25 58.1719 1297.44 58.1719C1299.17 58.1719 1300.58 58.7292 1301.67 59.8438C1302.78 60.9583 1303.33 62.5729 1303.33 64.6875V75H1299.38V65.3125C1299.38 64.1042 1299.08 63.1875 1298.5 62.5625C1297.92 61.9375 1297.1 61.625 1296.05 61.625C1295.02 61.625 1294.16 61.9479 1293.47 62.5938C1292.78 63.2396 1292.44 64.2656 1292.44 65.6719ZM1306.42 81.5312V78.3281H1308.38C1308.91 78.3281 1309.32 78.1823 1309.61 77.8906C1309.91 77.6094 1310.18 77.1458 1310.41 76.5L1311.02 74.9062L1304.66 58.5H1308.83L1311.86 67.0938C1312.07 67.7083 1312.27 68.3229 1312.47 68.9375C1312.67 69.5417 1312.86 70.1458 1313.05 70.75C1313.42 69.5417 1313.82 68.3229 1314.23 67.0938L1317.25 58.5H1321.38L1314 77.7188C1313.02 80.2604 1311.35 81.5312 1309 81.5312H1306.42ZM1320.22 79.7188L1321.45 71.3906H1325.34L1323.02 79.7188H1320.22ZM1145.36 104.375C1142.47 104.375 1140.21 103.672 1138.58 102.266C1136.95 100.849 1136.14 98.8958 1136.14 96.4062H1140.19C1140.21 97.8125 1140.67 98.9115 1141.58 99.7031C1142.49 100.495 1143.77 100.891 1145.39 100.891C1146.84 100.891 1148.01 100.589 1148.89 99.9844C1149.78 99.3698 1150.22 98.5521 1150.22 97.5312C1150.22 96.7083 1149.89 96.0417 1149.22 95.5312C1148.55 95.0104 1147.44 94.5729 1145.89 94.2188L1143.39 93.6562C1141.07 93.125 1139.35 92.3385 1138.25 91.2969C1137.15 90.2552 1136.59 88.9167 1136.59 87.2812C1136.59 85.8958 1136.95 84.6823 1137.66 83.6406C1138.38 82.599 1139.38 81.7917 1140.66 81.2188C1141.95 80.6354 1143.45 80.3438 1145.16 80.3438C1147.76 80.3438 1149.82 81.0052 1151.34 82.3281C1152.88 83.651 1153.67 85.4688 1153.73 87.7812H1149.81C1149.73 86.5521 1149.27 85.5885 1148.44 84.8906C1147.6 84.1927 1146.51 83.8438 1145.14 83.8438C1143.85 83.8438 1142.79 84.1458 1141.97 84.75C1141.15 85.3542 1140.73 86.1302 1140.73 87.0781C1140.73 87.8594 1141.06 88.4948 1141.7 88.9844C1142.36 89.4635 1143.45 89.875 1144.97 90.2188L1147.33 90.7656C1149.74 91.2969 1151.52 92.0885 1152.64 93.1406C1153.77 94.1927 1154.33 95.5729 1154.33 97.2812C1154.33 98.7292 1153.96 99.9844 1153.23 101.047C1152.51 102.109 1151.47 102.932 1150.12 103.516C1148.78 104.089 1147.19 104.375 1145.36 104.375ZM1164.59 104.375C1162.97 104.375 1161.55 104.016 1160.33 103.297C1159.11 102.568 1158.16 101.557 1157.47 100.266C1156.79 98.974 1156.45 97.474 1156.45 95.7656C1156.45 94.0573 1156.79 92.5573 1157.47 91.2656C1158.16 89.9635 1159.11 88.9479 1160.33 88.2188C1161.55 87.4896 1162.97 87.125 1164.59 87.125C1166.21 87.125 1167.62 87.4896 1168.84 88.2188C1170.07 88.9479 1171.03 89.9635 1171.7 91.2656C1172.39 92.5573 1172.73 94.0573 1172.73 95.7656C1172.73 97.474 1172.39 98.974 1171.7 100.266C1171.03 101.557 1170.07 102.568 1168.84 103.297C1167.62 104.016 1166.21 104.375 1164.59 104.375ZM1164.59 101.078C1165.85 101.078 1166.86 100.604 1167.61 99.6562C1168.36 98.7083 1168.73 97.4115 1168.73 95.7656C1168.73 94.1198 1168.36 92.8177 1167.61 91.8594C1166.86 90.901 1165.85 90.4219 1164.59 90.4219C1163.32 90.4219 1162.31 90.901 1161.56 91.8594C1160.81 92.8073 1160.44 94.1094 1160.44 95.7656C1160.44 97.4115 1160.81 98.7083 1161.56 99.6562C1162.31 100.604 1163.32 101.078 1164.59 101.078ZM1184.27 87.5V90.6719H1180.91V104H1176.95V90.6719H1173.98V87.5H1176.95V85.0938C1176.95 83.6771 1177.38 82.5938 1178.23 81.8438C1179.1 81.0938 1180.34 80.7188 1181.97 80.7188H1184.27V83.8906H1182.75C1182.07 83.8906 1181.59 84.0312 1181.31 84.3125C1181.04 84.5938 1180.91 85.0729 1180.91 85.75V87.5H1184.27ZM1194.08 87.5V90.6719H1190.72V99.2656C1190.72 99.8594 1190.84 100.271 1191.08 100.5C1191.32 100.719 1191.76 100.828 1192.39 100.828H1194.08V104H1191.7C1190.03 104 1188.78 103.661 1187.97 102.984C1187.17 102.307 1186.77 101.26 1186.77 99.8438V90.6719H1183.89V87.5H1186.77V83H1190.72V87.5H1194.08ZM1200.97 104L1195.88 87.5H1200.02L1201.72 93.7656C1201.98 94.7448 1202.23 95.7552 1202.47 96.7969C1202.71 97.8385 1202.95 98.8698 1203.2 99.8906C1203.45 98.8698 1203.71 97.8385 1203.97 96.7969C1204.23 95.7552 1204.49 94.7448 1204.77 93.7656L1206.52 87.5H1210.16L1211.89 93.7656C1212.15 94.7448 1212.41 95.75 1212.66 96.7812C1212.92 97.8125 1213.18 98.8385 1213.44 99.8594C1213.68 98.8385 1213.92 97.8125 1214.16 96.7812C1214.4 95.75 1214.65 94.7448 1214.91 93.7656L1216.61 87.5H1220.8L1215.69 104H1211.59L1209.59 97.125C1209.38 96.3646 1209.16 95.5833 1208.95 94.7812C1208.74 93.9792 1208.54 93.1771 1208.33 92.375C1208.13 93.1771 1207.93 93.9792 1207.72 94.7812C1207.51 95.5833 1207.29 96.3646 1207.06 97.125L1205.03 104H1200.97ZM1227.59 104.266C1225.95 104.266 1224.58 103.854 1223.5 103.031C1222.43 102.198 1221.89 100.958 1221.89 99.3125C1221.89 98.0625 1222.19 97.099 1222.8 96.4219C1223.41 95.7344 1224.21 95.2344 1225.19 94.9219C1226.18 94.6094 1227.24 94.3958 1228.38 94.2812C1229.91 94.1042 1230.97 93.9479 1231.58 93.8125C1232.18 93.6771 1232.48 93.3281 1232.48 92.7656V92.6406C1232.48 91.9323 1232.21 91.3542 1231.67 90.9062C1231.14 90.4583 1230.41 90.2344 1229.47 90.2344C1228.51 90.2344 1227.73 90.4583 1227.12 90.9062C1226.53 91.3542 1226.21 91.9271 1226.16 92.625H1222.36C1222.45 90.9896 1223.14 89.6719 1224.41 88.6719C1225.68 87.6719 1227.39 87.1719 1229.55 87.1719C1231.69 87.1719 1233.37 87.6719 1234.58 88.6719C1235.79 89.6719 1236.39 91.0312 1236.39 92.75V104H1232.52V101.672H1232.45C1232.06 102.401 1231.48 103.016 1230.73 103.516C1229.98 104.016 1228.94 104.266 1227.59 104.266ZM1228.56 101.344C1229.85 101.344 1230.83 101.01 1231.5 100.344C1232.17 99.6667 1232.5 98.849 1232.5 97.8906V96.1094C1232.26 96.2656 1231.8 96.4115 1231.11 96.5469C1230.42 96.6719 1229.67 96.7969 1228.86 96.9219C1228.02 97.0469 1227.28 97.2865 1226.66 97.6406C1226.04 97.9844 1225.73 98.5312 1225.73 99.2812C1225.73 99.9271 1225.99 100.432 1226.5 100.797C1227.01 101.161 1227.7 101.344 1228.56 101.344ZM1239.88 104V87.5H1243.67V90.2344H1243.72C1244.02 89.2969 1244.49 88.5833 1245.14 88.0938C1245.8 87.5938 1246.66 87.3438 1247.72 87.3438C1247.99 87.3438 1248.23 87.3542 1248.44 87.375C1248.66 87.3854 1248.84 87.3958 1249 87.4062V90.9062C1248.85 90.8854 1248.6 90.8594 1248.25 90.8281C1247.9 90.7969 1247.53 90.7812 1247.14 90.7812C1246.2 90.7812 1245.41 91.1042 1244.77 91.75C1244.13 92.3958 1243.81 93.3646 1243.81 94.6562V104H1239.88ZM1258.34 104.375C1256.7 104.375 1255.27 104.005 1254.06 103.266C1252.85 102.526 1251.92 101.51 1251.27 100.219C1250.62 98.9167 1250.3 97.4323 1250.3 95.7656C1250.3 94.0885 1250.63 92.6042 1251.3 91.3125C1251.97 90.0104 1252.91 88.9896 1254.09 88.25C1255.28 87.5 1256.65 87.125 1258.19 87.125C1259.77 87.125 1261.16 87.4896 1262.34 88.2188C1263.53 88.9479 1264.45 89.9583 1265.11 91.25C1265.77 92.5312 1266.09 94.0156 1266.09 95.7031V96.7812H1254.16C1254.21 98.125 1254.6 99.2083 1255.34 100.031C1256.08 100.854 1257.11 101.266 1258.44 101.266C1259.43 101.266 1260.24 101.052 1260.89 100.625C1261.54 100.188 1261.97 99.6146 1262.2 98.9062H1265.89C1265.68 99.9792 1265.22 100.927 1264.52 101.75C1263.82 102.573 1262.94 103.219 1261.88 103.688C1260.81 104.146 1259.64 104.375 1258.34 104.375ZM1254.19 94.0625H1262.31C1262.19 92.8854 1261.76 91.9583 1261.03 91.2812C1260.31 90.5938 1259.39 90.25 1258.25 90.25C1257.1 90.25 1256.17 90.5938 1255.45 91.2812C1254.74 91.9583 1254.32 92.8854 1254.19 94.0625ZM1276.22 104V80.7188H1292.39V84.2969H1280.34V90.4219H1291.48V93.9375H1280.34V100.422H1292.39V104H1276.22ZM1299.12 94.6719V104H1295.19V87.5H1299.06V90.0312C1300.21 88.125 1301.9 87.1719 1304.12 87.1719C1305.85 87.1719 1307.27 87.7292 1308.36 88.8438C1309.46 89.9583 1310.02 91.5729 1310.02 93.6875V104H1306.06V94.3125C1306.06 93.1042 1305.77 92.1875 1305.19 91.5625C1304.6 90.9375 1303.79 90.625 1302.73 90.625C1301.7 90.625 1300.84 90.9479 1300.16 91.5938C1299.47 92.2396 1299.12 93.2656 1299.12 94.6719ZM1321.02 110.75C1318.84 110.75 1317.11 110.281 1315.83 109.344C1314.55 108.406 1313.8 107.135 1313.58 105.531H1317.44C1317.62 106.24 1318.04 106.776 1318.67 107.141C1319.31 107.516 1320.09 107.703 1321.02 107.703C1322.24 107.703 1323.2 107.37 1323.88 106.703C1324.56 106.036 1324.91 105.073 1324.91 103.812V101.297H1324.89C1324.36 102.266 1323.67 102.979 1322.81 103.438C1321.96 103.885 1320.99 104.109 1319.91 104.109C1318.47 104.109 1317.21 103.75 1316.14 103.031C1315.07 102.312 1314.23 101.323 1313.64 100.062C1313.06 98.7917 1312.77 97.3281 1312.77 95.6719C1312.77 94.0052 1313.06 92.5312 1313.66 91.25C1314.25 89.9688 1315.08 88.9688 1316.16 88.25C1317.23 87.5312 1318.47 87.1719 1319.88 87.1719C1320.95 87.1719 1321.92 87.401 1322.78 87.8594C1323.66 88.3073 1324.36 89.0052 1324.91 89.9531H1324.92V87.5H1328.81V103.578C1328.81 105.276 1328.47 106.651 1327.8 107.703C1327.12 108.766 1326.19 109.536 1325.02 110.016C1323.84 110.505 1322.51 110.75 1321.02 110.75ZM1320.83 100.859C1322.12 100.859 1323.15 100.385 1323.92 99.4375C1324.7 98.4792 1325.09 97.2083 1325.09 95.625C1325.09 94.0417 1324.7 92.776 1323.92 91.8281C1323.15 90.8698 1322.12 90.3906 1320.83 90.3906C1319.61 90.3906 1318.62 90.8438 1317.88 91.75C1317.12 92.6562 1316.75 93.9479 1316.75 95.625C1316.75 97.3125 1317.12 98.6094 1317.88 99.5156C1318.62 100.411 1319.61 100.859 1320.83 100.859ZM1332.31 104V87.5H1336.25V104H1332.31ZM1334.28 85.0469C1333.6 85.0469 1333.04 84.8333 1332.59 84.4062C1332.15 83.9688 1331.92 83.4323 1331.92 82.7969C1331.92 82.1615 1332.15 81.6302 1332.59 81.2031C1333.04 80.776 1333.6 80.5625 1334.28 80.5625C1334.95 80.5625 1335.51 80.776 1335.95 81.2031C1336.4 81.6302 1336.62 82.1615 1336.62 82.7969C1336.62 83.4323 1336.4 83.9688 1335.95 84.4062C1335.51 84.8333 1334.95 85.0469 1334.28 85.0469ZM1343.69 94.6719V104H1339.75V87.5H1343.62V90.0312C1344.77 88.125 1346.46 87.1719 1348.69 87.1719C1350.42 87.1719 1351.83 87.7292 1352.92 88.8438C1354.03 89.9583 1354.58 91.5729 1354.58 93.6875V104H1350.62V94.3125C1350.62 93.1042 1350.33 92.1875 1349.75 91.5625C1349.17 90.9375 1348.35 90.625 1347.3 90.625C1346.27 90.625 1345.41 90.9479 1344.72 91.5938C1344.03 92.2396 1343.69 93.2656 1343.69 94.6719ZM1365.38 104.375C1363.73 104.375 1362.3 104.005 1361.09 103.266C1359.89 102.526 1358.95 101.51 1358.3 100.219C1357.65 98.9167 1357.33 97.4323 1357.33 95.7656C1357.33 94.0885 1357.66 92.6042 1358.33 91.3125C1359.01 90.0104 1359.94 88.9896 1361.12 88.25C1362.31 87.5 1363.68 87.125 1365.22 87.125C1366.8 87.125 1368.19 87.4896 1369.38 88.2188C1370.56 88.9479 1371.48 89.9583 1372.14 91.25C1372.8 92.5312 1373.12 94.0156 1373.12 95.7031V96.7812H1361.19C1361.24 98.125 1361.64 99.2083 1362.38 100.031C1363.11 100.854 1364.15 101.266 1365.47 101.266C1366.46 101.266 1367.28 101.052 1367.92 100.625C1368.57 100.188 1369.01 99.6146 1369.23 98.9062H1372.92C1372.71 99.9792 1372.26 100.927 1371.55 101.75C1370.85 102.573 1369.97 103.219 1368.91 103.688C1367.84 104.146 1366.67 104.375 1365.38 104.375ZM1361.22 94.0625H1369.34C1369.22 92.8854 1368.79 91.9583 1368.06 91.2812C1367.34 90.5938 1366.42 90.25 1365.28 90.25C1364.14 90.25 1363.2 90.5938 1362.48 91.2812C1361.78 91.9583 1361.35 92.8854 1361.22 94.0625ZM1383.09 104.375C1381.45 104.375 1380.02 104.005 1378.81 103.266C1377.6 102.526 1376.67 101.51 1376.02 100.219C1375.37 98.9167 1375.05 97.4323 1375.05 95.7656C1375.05 94.0885 1375.38 92.6042 1376.05 91.3125C1376.72 90.0104 1377.66 88.9896 1378.84 88.25C1380.03 87.5 1381.4 87.125 1382.94 87.125C1384.52 87.125 1385.91 87.4896 1387.09 88.2188C1388.28 88.9479 1389.2 89.9583 1389.86 91.25C1390.52 92.5312 1390.84 94.0156 1390.84 95.7031V96.7812H1378.91C1378.96 98.125 1379.35 99.2083 1380.09 100.031C1380.83 100.854 1381.86 101.266 1383.19 101.266C1384.18 101.266 1384.99 101.052 1385.64 100.625C1386.29 100.188 1386.72 99.6146 1386.95 98.9062H1390.64C1390.43 99.9792 1389.97 100.927 1389.27 101.75C1388.57 102.573 1387.69 103.219 1386.62 103.688C1385.56 104.146 1384.39 104.375 1383.09 104.375ZM1378.94 94.0625H1387.06C1386.94 92.8854 1386.51 91.9583 1385.78 91.2812C1385.06 90.5938 1384.14 90.25 1383 90.25C1381.85 90.25 1380.92 90.5938 1380.2 91.2812C1379.49 91.9583 1379.07 92.8854 1378.94 94.0625ZM1393.53 104V87.5H1397.33V90.2344H1397.38C1397.68 89.2969 1398.15 88.5833 1398.8 88.0938C1399.45 87.5938 1400.31 87.3438 1401.38 87.3438C1401.65 87.3438 1401.89 87.3542 1402.09 87.375C1402.31 87.3854 1402.5 87.3958 1402.66 87.4062V90.9062C1402.51 90.8854 1402.26 90.8594 1401.91 90.8281C1401.55 90.7969 1401.18 90.7812 1400.8 90.7812C1399.86 90.7812 1399.07 91.1042 1398.42 91.75C1397.79 92.3958 1397.47 93.3646 1397.47 94.6562V104H1393.53ZM1405.06 104V87.5H1409V104H1405.06ZM1407.03 85.0469C1406.35 85.0469 1405.79 84.8333 1405.34 84.4062C1404.9 83.9688 1404.67 83.4323 1404.67 82.7969C1404.67 82.1615 1404.9 81.6302 1405.34 81.2031C1405.79 80.776 1406.35 80.5625 1407.03 80.5625C1407.7 80.5625 1408.26 80.776 1408.7 81.2031C1409.15 81.6302 1409.38 82.1615 1409.38 82.7969C1409.38 83.4323 1409.15 83.9688 1408.7 84.4062C1408.26 84.8333 1407.7 85.0469 1407.03 85.0469ZM1416.44 94.6719V104H1412.5V87.5H1416.38V90.0312C1417.52 88.125 1419.21 87.1719 1421.44 87.1719C1423.17 87.1719 1424.58 87.7292 1425.67 88.8438C1426.78 89.9583 1427.33 91.5729 1427.33 93.6875V104H1423.38V94.3125C1423.38 93.1042 1423.08 92.1875 1422.5 91.5625C1421.92 90.9375 1421.1 90.625 1420.05 90.625C1419.02 90.625 1418.16 90.9479 1417.47 91.5938C1416.78 92.2396 1416.44 93.2656 1416.44 94.6719ZM1438.33 110.75C1436.15 110.75 1434.42 110.281 1433.14 109.344C1431.86 108.406 1431.11 107.135 1430.89 105.531H1434.75C1434.94 106.24 1435.35 106.776 1435.98 107.141C1436.62 107.516 1437.4 107.703 1438.33 107.703C1439.56 107.703 1440.51 107.37 1441.19 106.703C1441.88 106.036 1442.22 105.073 1442.22 103.812V101.297H1442.2C1441.67 102.266 1440.98 102.979 1440.12 103.438C1439.27 103.885 1438.3 104.109 1437.22 104.109C1435.78 104.109 1434.53 103.75 1433.45 103.031C1432.38 102.312 1431.55 101.323 1430.95 100.062C1430.37 98.7917 1430.08 97.3281 1430.08 95.6719C1430.08 94.0052 1430.38 92.5312 1430.97 91.25C1431.56 89.9688 1432.4 88.9688 1433.47 88.25C1434.54 87.5312 1435.78 87.1719 1437.19 87.1719C1438.26 87.1719 1439.23 87.401 1440.09 87.8594C1440.97 88.3073 1441.68 89.0052 1442.22 89.9531H1442.23V87.5H1446.12V103.578C1446.12 105.276 1445.79 106.651 1445.11 107.703C1444.43 108.766 1443.51 109.536 1442.33 110.016C1441.15 110.505 1439.82 110.75 1438.33 110.75ZM1438.14 100.859C1439.43 100.859 1440.46 100.385 1441.23 99.4375C1442.02 98.4792 1442.41 97.2083 1442.41 95.625C1442.41 94.0417 1442.02 92.776 1441.23 91.8281C1440.46 90.8698 1439.43 90.3906 1438.14 90.3906C1436.92 90.3906 1435.94 90.8438 1435.19 91.75C1434.44 92.6562 1434.06 93.9479 1434.06 95.625C1434.06 97.3125 1434.44 98.6094 1435.19 99.5156C1435.94 100.411 1436.92 100.859 1438.14 100.859Z" fill="white"/>
</svg>
