<svg width="803" height="221" viewBox="0 0 803 221" fill="none" xmlns="http://www.w3.org/2000/svg">
<g clip-path="url(#clip0_728_530)">
<path d="M595.322 143L590.127 128.449H592.92L595.547 136.096C595.742 136.708 595.954 137.391 596.182 138.146C596.416 138.895 596.673 139.732 596.953 140.656C597.227 139.732 597.477 138.895 597.705 138.146C597.933 137.391 598.141 136.708 598.33 136.096L600.869 128.449H603.633L598.535 143H595.322ZM604.863 143V132.688H607.324V143H604.863ZM606.094 131.154C605.671 131.154 605.319 131.021 605.039 130.754C604.759 130.48 604.619 130.145 604.619 129.748C604.619 129.351 604.759 129.019 605.039 128.752C605.319 128.485 605.671 128.352 606.094 128.352C606.51 128.352 606.859 128.485 607.139 128.752C607.419 129.019 607.559 129.351 607.559 129.748C607.559 130.145 607.419 130.48 607.139 130.754C606.859 131.021 606.51 131.154 606.094 131.154ZM613.496 143.205C612.598 143.205 611.813 142.98 611.143 142.531C610.472 142.082 609.951 141.457 609.58 140.656C609.215 139.849 609.033 138.908 609.033 137.834C609.033 136.779 609.219 135.852 609.59 135.051C609.961 134.243 610.482 133.615 611.152 133.166C611.823 132.71 612.598 132.482 613.477 132.482C614.147 132.482 614.749 132.619 615.283 132.893C615.817 133.166 616.25 133.586 616.582 134.152H616.602V128.449H619.062V143H616.641V141.428H616.621C616.296 142.027 615.859 142.473 615.312 142.766C614.772 143.059 614.167 143.205 613.496 143.205ZM614.072 141.145C614.88 141.145 615.524 140.845 616.006 140.246C616.494 139.641 616.738 138.837 616.738 137.834C616.738 136.831 616.494 136.031 616.006 135.432C615.524 134.826 614.88 134.523 614.072 134.523C613.311 134.523 612.695 134.81 612.227 135.383C611.758 135.956 611.523 136.773 611.523 137.834C611.523 138.902 611.758 139.722 612.227 140.295C612.695 140.861 613.311 141.145 614.072 141.145ZM625.801 143.234C624.772 143.234 623.88 143.003 623.125 142.541C622.37 142.079 621.787 141.444 621.377 140.637C620.973 139.823 620.771 138.895 620.771 137.854C620.771 136.805 620.98 135.878 621.396 135.07C621.82 134.257 622.402 133.618 623.145 133.156C623.887 132.688 624.74 132.453 625.703 132.453C626.693 132.453 627.559 132.681 628.301 133.137C629.043 133.592 629.619 134.224 630.029 135.031C630.439 135.832 630.645 136.76 630.645 137.814V138.488H623.184C623.216 139.328 623.464 140.005 623.926 140.52C624.388 141.034 625.033 141.291 625.859 141.291C626.478 141.291 626.989 141.158 627.393 140.891C627.796 140.617 628.07 140.259 628.213 139.816H630.518C630.387 140.487 630.101 141.079 629.658 141.594C629.222 142.108 628.672 142.512 628.008 142.805C627.344 143.091 626.608 143.234 625.801 143.234ZM623.203 136.789H628.281C628.203 136.053 627.936 135.474 627.48 135.051C627.031 134.621 626.452 134.406 625.742 134.406C625.026 134.406 624.443 134.621 623.994 135.051C623.551 135.474 623.288 136.053 623.203 136.789ZM636.934 143.234C635.918 143.234 635.029 143.01 634.268 142.561C633.506 142.105 632.91 141.473 632.48 140.666C632.057 139.859 631.846 138.921 631.846 137.854C631.846 136.786 632.057 135.848 632.48 135.041C632.91 134.227 633.506 133.592 634.268 133.137C635.029 132.681 635.918 132.453 636.934 132.453C637.943 132.453 638.828 132.681 639.59 133.137C640.358 133.592 640.954 134.227 641.377 135.041C641.807 135.848 642.021 136.786 642.021 137.854C642.021 138.921 641.807 139.859 641.377 140.666C640.954 141.473 640.358 142.105 639.59 142.561C638.828 143.01 637.943 143.234 636.934 143.234ZM636.934 141.174C637.721 141.174 638.35 140.878 638.818 140.285C639.287 139.693 639.521 138.882 639.521 137.854C639.521 136.825 639.287 136.011 638.818 135.412C638.35 134.813 637.721 134.514 636.934 134.514C636.139 134.514 635.508 134.813 635.039 135.412C634.57 136.005 634.336 136.818 634.336 137.854C634.336 138.882 634.57 139.693 635.039 140.285C635.508 140.878 636.139 141.174 636.934 141.174ZM650.293 136.164V138.234H643.77V136.164H650.293ZM652.52 132.688H654.99V144.055C654.99 144.979 654.717 145.715 654.17 146.262C653.623 146.809 652.826 147.082 651.777 147.082H650.771V145.08H651.396C651.787 145.08 652.07 144.976 652.246 144.768C652.428 144.559 652.52 144.224 652.52 143.762V132.688ZM653.76 131.154C653.337 131.154 652.985 131.021 652.705 130.754C652.425 130.48 652.285 130.145 652.285 129.748C652.285 129.351 652.425 129.019 652.705 128.752C652.985 128.485 653.337 128.352 653.76 128.352C654.176 128.352 654.525 128.485 654.805 128.752C655.085 129.019 655.225 129.351 655.225 129.748C655.225 130.145 655.085 130.48 654.805 130.754C654.525 131.021 654.176 131.154 653.76 131.154ZM661.797 143.234C660.781 143.234 659.893 143.01 659.131 142.561C658.369 142.105 657.773 141.473 657.344 140.666C656.921 139.859 656.709 138.921 656.709 137.854C656.709 136.786 656.921 135.848 657.344 135.041C657.773 134.227 658.369 133.592 659.131 133.137C659.893 132.681 660.781 132.453 661.797 132.453C662.806 132.453 663.691 132.681 664.453 133.137C665.221 133.592 665.817 134.227 666.24 135.041C666.67 135.848 666.885 136.786 666.885 137.854C666.885 138.921 666.67 139.859 666.24 140.666C665.817 141.473 665.221 142.105 664.453 142.561C663.691 143.01 662.806 143.234 661.797 143.234ZM661.797 141.174C662.585 141.174 663.213 140.878 663.682 140.285C664.15 139.693 664.385 138.882 664.385 137.854C664.385 136.825 664.15 136.011 663.682 135.412C663.213 134.813 662.585 134.514 661.797 134.514C661.003 134.514 660.371 134.813 659.902 135.412C659.434 136.005 659.199 136.818 659.199 137.854C659.199 138.882 659.434 139.693 659.902 140.285C660.371 140.878 661.003 141.174 661.797 141.174ZM672.266 143.205C671.185 143.205 670.303 142.857 669.619 142.16C668.936 141.464 668.594 140.454 668.594 139.133V132.688H671.055V138.742C671.055 139.497 671.237 140.07 671.602 140.461C671.966 140.852 672.477 141.047 673.135 141.047C673.786 141.047 674.323 140.845 674.746 140.441C675.176 140.038 675.391 139.396 675.391 138.518V132.688H677.861V143H675.439V141.418C674.717 142.609 673.659 143.205 672.266 143.205ZM680.059 143V132.688H682.432V134.396H682.461C682.65 133.811 682.946 133.365 683.35 133.059C683.76 132.746 684.297 132.59 684.961 132.59C685.13 132.59 685.28 132.596 685.41 132.609C685.547 132.616 685.664 132.622 685.762 132.629V134.816C685.671 134.803 685.514 134.787 685.293 134.768C685.072 134.748 684.84 134.738 684.6 134.738C684.014 134.738 683.519 134.94 683.115 135.344C682.718 135.747 682.52 136.353 682.52 137.16V143H680.059ZM689.766 137.17V143H687.305V132.688H689.727V134.27C690.443 133.078 691.497 132.482 692.891 132.482C693.971 132.482 694.854 132.831 695.537 133.527C696.227 134.224 696.572 135.233 696.572 136.555V143H694.102V136.945C694.102 136.19 693.919 135.617 693.555 135.227C693.19 134.836 692.679 134.641 692.021 134.641C691.377 134.641 690.84 134.842 690.41 135.246C689.98 135.65 689.766 136.291 689.766 137.17ZM701.914 143.166C700.885 143.166 700.033 142.909 699.355 142.395C698.685 141.874 698.35 141.099 698.35 140.07C698.35 139.289 698.538 138.687 698.916 138.264C699.3 137.834 699.798 137.521 700.41 137.326C701.029 137.131 701.693 136.997 702.402 136.926C703.359 136.815 704.027 136.717 704.404 136.633C704.782 136.548 704.971 136.33 704.971 135.979V135.9C704.971 135.458 704.801 135.096 704.463 134.816C704.131 134.536 703.672 134.396 703.086 134.396C702.487 134.396 701.999 134.536 701.621 134.816C701.25 135.096 701.048 135.454 701.016 135.891H698.643C698.701 134.868 699.128 134.045 699.922 133.42C700.716 132.795 701.787 132.482 703.135 132.482C704.476 132.482 705.524 132.795 706.279 133.42C707.035 134.045 707.412 134.895 707.412 135.969V143H704.99V141.545H704.951C704.704 142.001 704.346 142.385 703.877 142.697C703.408 143.01 702.754 143.166 701.914 143.166ZM702.52 141.34C703.327 141.34 703.939 141.132 704.355 140.715C704.772 140.292 704.98 139.781 704.98 139.182V138.068C704.831 138.166 704.541 138.257 704.111 138.342C703.682 138.42 703.213 138.498 702.705 138.576C702.178 138.654 701.719 138.804 701.328 139.025C700.944 139.24 700.752 139.582 700.752 140.051C700.752 140.454 700.911 140.77 701.23 140.998C701.549 141.226 701.979 141.34 702.52 141.34ZM712.051 128.449V143H709.59V128.449H712.051ZM714.238 143V132.688H716.699V143H714.238ZM715.469 131.154C715.046 131.154 714.694 131.021 714.414 130.754C714.134 130.48 713.994 130.145 713.994 129.748C713.994 129.351 714.134 129.019 714.414 128.752C714.694 128.485 715.046 128.352 715.469 128.352C715.885 128.352 716.234 128.485 716.514 128.752C716.794 129.019 716.934 129.351 716.934 129.748C716.934 130.145 716.794 130.48 716.514 130.754C716.234 131.021 715.885 131.154 715.469 131.154ZM722.93 143.244C721.673 143.244 720.622 142.951 719.775 142.365C718.936 141.773 718.477 140.923 718.398 139.816H720.83C720.882 140.318 721.084 140.708 721.436 140.988C721.787 141.262 722.272 141.398 722.891 141.398C723.483 141.398 723.949 141.281 724.287 141.047C724.632 140.812 724.805 140.513 724.805 140.148C724.805 139.836 724.678 139.585 724.424 139.396C724.17 139.208 723.828 139.068 723.398 138.977L721.641 138.615C719.635 138.199 718.633 137.206 718.633 135.637C718.633 134.686 719.01 133.921 719.766 133.342C720.521 132.756 721.527 132.463 722.783 132.463C724.033 132.463 725.049 132.772 725.83 133.391C726.618 134.003 727.025 134.839 727.051 135.9H724.736C724.723 135.438 724.544 135.057 724.199 134.758C723.854 134.458 723.402 134.309 722.842 134.309C722.301 134.309 721.875 134.429 721.562 134.67C721.25 134.911 721.094 135.207 721.094 135.559C721.094 135.865 721.214 136.115 721.455 136.311C721.696 136.499 722.031 136.643 722.461 136.74L724.316 137.121C725.339 137.336 726.09 137.674 726.572 138.137C727.061 138.599 727.305 139.208 727.305 139.963C727.305 140.633 727.116 141.216 726.738 141.711C726.367 142.199 725.853 142.577 725.195 142.844C724.538 143.111 723.783 143.244 722.93 143.244ZM728.984 143V132.688H731.367V134.475C731.68 133.811 732.113 133.312 732.666 132.98C733.219 132.648 733.822 132.482 734.473 132.482C735.169 132.482 735.785 132.661 736.318 133.02C736.852 133.371 737.227 133.843 737.441 134.436C737.715 133.843 738.141 133.371 738.721 133.02C739.3 132.661 739.967 132.482 740.723 132.482C741.699 132.482 742.52 132.798 743.184 133.43C743.848 134.061 744.18 134.982 744.18 136.193V143H741.709V136.545C741.709 135.861 741.52 135.363 741.143 135.051C740.771 134.732 740.322 134.572 739.795 134.572C739.17 134.572 738.675 134.768 738.311 135.158C737.952 135.549 737.773 136.053 737.773 136.672V143H735.381V136.428C735.381 135.868 735.205 135.419 734.854 135.08C734.502 134.742 734.053 134.572 733.506 134.572C732.952 134.572 732.471 134.768 732.061 135.158C731.65 135.542 731.445 136.105 731.445 136.848V143H728.984ZM591.211 169V154.449H596.768C597.835 154.449 598.757 154.638 599.531 155.016C600.312 155.393 600.911 155.93 601.328 156.627C601.751 157.324 601.963 158.147 601.963 159.098C601.963 160.055 601.748 160.882 601.318 161.578C600.889 162.275 600.28 162.815 599.492 163.199C598.711 163.577 597.786 163.766 596.719 163.766H593.789V169H591.211ZM593.789 161.559H596.621C597.487 161.559 598.171 161.34 598.672 160.904C599.173 160.462 599.424 159.859 599.424 159.098C599.424 158.342 599.173 157.747 598.672 157.311C598.171 156.874 597.487 156.656 596.621 156.656H593.789V161.559ZM606.055 163.17V169H603.594V154.449H606.055V160.201C606.771 159.055 607.812 158.482 609.18 158.482C610.26 158.482 611.143 158.831 611.826 159.527C612.516 160.224 612.861 161.233 612.861 162.555V169H610.391V162.945C610.391 162.19 610.208 161.617 609.844 161.227C609.479 160.836 608.968 160.641 608.311 160.641C607.666 160.641 607.129 160.842 606.699 161.246C606.27 161.65 606.055 162.291 606.055 163.17ZM619.668 169.234C618.652 169.234 617.764 169.01 617.002 168.561C616.24 168.105 615.645 167.473 615.215 166.666C614.792 165.859 614.58 164.921 614.58 163.854C614.58 162.786 614.792 161.848 615.215 161.041C615.645 160.227 616.24 159.592 617.002 159.137C617.764 158.681 618.652 158.453 619.668 158.453C620.677 158.453 621.562 158.681 622.324 159.137C623.092 159.592 623.688 160.227 624.111 161.041C624.541 161.848 624.756 162.786 624.756 163.854C624.756 164.921 624.541 165.859 624.111 166.666C623.688 167.473 623.092 168.105 622.324 168.561C621.562 169.01 620.677 169.234 619.668 169.234ZM619.668 167.174C620.456 167.174 621.084 166.878 621.553 166.285C622.021 165.693 622.256 164.882 622.256 163.854C622.256 162.825 622.021 162.011 621.553 161.412C621.084 160.813 620.456 160.514 619.668 160.514C618.874 160.514 618.242 160.813 617.773 161.412C617.305 162.005 617.07 162.818 617.07 163.854C617.07 164.882 617.305 165.693 617.773 166.285C618.242 166.878 618.874 167.174 619.668 167.174ZM631.904 158.688V160.67H629.805V166.041C629.805 166.412 629.88 166.669 630.029 166.812C630.179 166.949 630.452 167.018 630.85 167.018H631.904V169H630.42C629.372 169 628.594 168.788 628.086 168.365C627.585 167.942 627.334 167.288 627.334 166.402V160.67H625.537V158.688H627.334V155.875H629.805V158.688H631.904ZM637.91 169.234C636.895 169.234 636.006 169.01 635.244 168.561C634.482 168.105 633.887 167.473 633.457 166.666C633.034 165.859 632.822 164.921 632.822 163.854C632.822 162.786 633.034 161.848 633.457 161.041C633.887 160.227 634.482 159.592 635.244 159.137C636.006 158.681 636.895 158.453 637.91 158.453C638.919 158.453 639.805 158.681 640.566 159.137C641.335 159.592 641.93 160.227 642.354 161.041C642.783 161.848 642.998 162.786 642.998 163.854C642.998 164.921 642.783 165.859 642.354 166.666C641.93 167.473 641.335 168.105 640.566 168.561C639.805 169.01 638.919 169.234 637.91 169.234ZM637.91 167.174C638.698 167.174 639.326 166.878 639.795 166.285C640.264 165.693 640.498 164.882 640.498 163.854C640.498 162.825 640.264 162.011 639.795 161.412C639.326 160.813 638.698 160.514 637.91 160.514C637.116 160.514 636.484 160.813 636.016 161.412C635.547 162.005 635.312 162.818 635.312 163.854C635.312 164.882 635.547 165.693 636.016 166.285C636.484 166.878 637.116 167.174 637.91 167.174ZM649.385 173.219C648.024 173.219 646.943 172.926 646.143 172.34C645.342 171.754 644.873 170.96 644.736 169.957H647.148C647.266 170.4 647.523 170.735 647.92 170.963C648.317 171.197 648.805 171.314 649.385 171.314C650.153 171.314 650.749 171.106 651.172 170.689C651.602 170.273 651.816 169.671 651.816 168.883V167.311H651.807C651.475 167.916 651.042 168.362 650.508 168.648C649.974 168.928 649.368 169.068 648.691 169.068C647.793 169.068 647.008 168.844 646.338 168.395C645.667 167.945 645.146 167.327 644.775 166.539C644.411 165.745 644.229 164.83 644.229 163.795C644.229 162.753 644.414 161.832 644.785 161.031C645.156 160.23 645.677 159.605 646.348 159.156C647.018 158.707 647.793 158.482 648.672 158.482C649.342 158.482 649.948 158.626 650.488 158.912C651.035 159.192 651.478 159.628 651.816 160.221H651.826V158.688H654.258V168.736C654.258 169.798 654.046 170.657 653.623 171.314C653.2 171.979 652.62 172.46 651.885 172.76C651.149 173.066 650.316 173.219 649.385 173.219ZM649.268 167.037C650.075 167.037 650.719 166.741 651.201 166.148C651.689 165.549 651.934 164.755 651.934 163.766C651.934 162.776 651.689 161.985 651.201 161.393C650.719 160.794 650.075 160.494 649.268 160.494C648.506 160.494 647.891 160.777 647.422 161.344C646.953 161.91 646.719 162.717 646.719 163.766C646.719 164.82 646.953 165.631 647.422 166.197C647.891 166.757 648.506 167.037 649.268 167.037ZM656.445 169V158.688H658.818V160.396H658.848C659.036 159.811 659.333 159.365 659.736 159.059C660.146 158.746 660.684 158.59 661.348 158.59C661.517 158.59 661.667 158.596 661.797 158.609C661.934 158.616 662.051 158.622 662.148 158.629V160.816C662.057 160.803 661.901 160.787 661.68 160.768C661.458 160.748 661.227 160.738 660.986 160.738C660.4 160.738 659.906 160.94 659.502 161.344C659.105 161.747 658.906 162.353 658.906 163.16V169H656.445ZM666.523 169.166C665.495 169.166 664.642 168.909 663.965 168.395C663.294 167.874 662.959 167.099 662.959 166.07C662.959 165.289 663.148 164.687 663.525 164.264C663.91 163.834 664.408 163.521 665.02 163.326C665.638 163.131 666.302 162.997 667.012 162.926C667.969 162.815 668.636 162.717 669.014 162.633C669.391 162.548 669.58 162.33 669.58 161.979V161.9C669.58 161.458 669.411 161.096 669.072 160.816C668.74 160.536 668.281 160.396 667.695 160.396C667.096 160.396 666.608 160.536 666.23 160.816C665.859 161.096 665.658 161.454 665.625 161.891H663.252C663.311 160.868 663.737 160.045 664.531 159.42C665.326 158.795 666.396 158.482 667.744 158.482C669.085 158.482 670.133 158.795 670.889 159.42C671.644 160.045 672.021 160.895 672.021 161.969V169H669.6V167.545H669.561C669.313 168.001 668.955 168.385 668.486 168.697C668.018 169.01 667.363 169.166 666.523 169.166ZM667.129 167.34C667.936 167.34 668.548 167.132 668.965 166.715C669.382 166.292 669.59 165.781 669.59 165.182V164.068C669.44 164.166 669.15 164.257 668.721 164.342C668.291 164.42 667.822 164.498 667.314 164.576C666.787 164.654 666.328 164.804 665.938 165.025C665.553 165.24 665.361 165.582 665.361 166.051C665.361 166.454 665.521 166.77 665.84 166.998C666.159 167.226 666.589 167.34 667.129 167.34ZM674.199 173.082V158.688H676.621V160.123H676.65C676.976 159.576 677.412 159.166 677.959 158.893C678.506 158.619 679.111 158.482 679.775 158.482C680.661 158.482 681.436 158.71 682.1 159.166C682.77 159.615 683.291 160.243 683.662 161.051C684.04 161.852 684.229 162.779 684.229 163.834C684.229 164.908 684.043 165.849 683.672 166.656C683.307 167.457 682.79 168.082 682.119 168.531C681.449 168.98 680.664 169.205 679.766 169.205C679.089 169.205 678.486 169.059 677.959 168.766C677.438 168.473 677.015 168.033 676.689 167.447H676.66V173.082H674.199ZM679.189 167.145C679.951 167.145 680.566 166.861 681.035 166.295C681.504 165.722 681.738 164.902 681.738 163.834C681.738 162.773 681.504 161.956 681.035 161.383C680.566 160.81 679.951 160.523 679.189 160.523C678.382 160.523 677.734 160.826 677.246 161.432C676.764 162.031 676.523 162.831 676.523 163.834C676.523 164.837 676.764 165.641 677.246 166.246C677.734 166.845 678.382 167.145 679.189 167.145ZM688.398 163.17V169H685.938V154.449H688.398V160.201C689.115 159.055 690.156 158.482 691.523 158.482C692.604 158.482 693.486 158.831 694.17 159.527C694.86 160.224 695.205 161.233 695.205 162.555V169H692.734V162.945C692.734 162.19 692.552 161.617 692.188 161.227C691.823 160.836 691.312 160.641 690.654 160.641C690.01 160.641 689.473 160.842 689.043 161.246C688.613 161.65 688.398 162.291 688.398 163.17ZM697.139 173.082V171.08H698.359C698.691 171.08 698.949 170.989 699.131 170.807C699.32 170.631 699.486 170.341 699.629 169.938L700.01 168.941L696.035 158.688H698.643L700.537 164.059C700.667 164.443 700.794 164.827 700.918 165.211C701.042 165.589 701.162 165.966 701.279 166.344C701.514 165.589 701.761 164.827 702.021 164.059L703.906 158.688H706.484L701.875 170.699C701.263 172.288 700.221 173.082 698.75 173.082H697.139ZM595.391 195.205C594.427 195.205 593.587 195.033 592.871 194.688C592.155 194.336 591.598 193.854 591.201 193.242C590.811 192.624 590.615 191.921 590.615 191.133C590.615 190.632 590.703 190.179 590.879 189.775C591.061 189.365 591.354 188.962 591.758 188.564C592.168 188.161 592.705 187.718 593.369 187.236C592.855 186.579 592.467 185.993 592.207 185.479C591.953 184.964 591.826 184.414 591.826 183.828C591.826 183.145 591.986 182.536 592.305 182.002C592.624 181.468 593.07 181.048 593.643 180.742C594.215 180.436 594.88 180.283 595.635 180.283C596.37 180.283 597.015 180.426 597.568 180.713C598.122 180.999 598.551 181.39 598.857 181.885C599.163 182.38 599.316 182.939 599.316 183.564C599.316 184.821 598.672 185.921 597.383 186.865L596.436 187.549L599.121 190.703C599.323 190.332 599.479 189.935 599.59 189.512C599.701 189.089 599.756 188.649 599.756 188.193H601.914C601.914 189.02 601.81 189.801 601.602 190.537C601.4 191.273 601.084 191.927 600.654 192.5L602.783 195H600.068L599.131 193.926C598.643 194.336 598.066 194.652 597.402 194.873C596.745 195.094 596.074 195.205 595.391 195.205ZM597.754 192.344L594.697 188.818L594.434 189.014C593.978 189.352 593.636 189.681 593.408 190C593.18 190.312 593.066 190.661 593.066 191.045C593.066 191.631 593.301 192.132 593.77 192.549C594.238 192.959 594.814 193.164 595.498 193.164C595.895 193.164 596.286 193.092 596.67 192.949C597.054 192.806 597.415 192.604 597.754 192.344ZM595.146 186.016L596.123 185.342C596.488 185.081 596.751 184.811 596.914 184.531C597.083 184.245 597.168 183.965 597.168 183.691C597.168 183.32 597.028 183.001 596.748 182.734C596.468 182.461 596.097 182.324 595.635 182.324C595.186 182.324 594.811 182.467 594.512 182.754C594.212 183.034 594.062 183.408 594.062 183.877C594.062 184.196 594.147 184.515 594.316 184.834C594.492 185.146 594.769 185.54 595.146 186.016ZM613.701 195.234C611.898 195.234 610.485 194.795 609.463 193.916C608.447 193.031 607.939 191.81 607.939 190.254H610.469C610.482 191.133 610.771 191.82 611.338 192.314C611.911 192.809 612.705 193.057 613.721 193.057C614.626 193.057 615.355 192.868 615.908 192.49C616.462 192.106 616.738 191.595 616.738 190.957C616.738 190.443 616.53 190.026 616.113 189.707C615.697 189.382 615.003 189.108 614.033 188.887L612.471 188.535C611.019 188.203 609.948 187.712 609.258 187.061C608.568 186.41 608.223 185.573 608.223 184.551C608.223 183.685 608.444 182.926 608.887 182.275C609.336 181.624 609.961 181.12 610.762 180.762C611.569 180.397 612.507 180.215 613.574 180.215C615.202 180.215 616.491 180.628 617.441 181.455C618.398 182.282 618.896 183.418 618.936 184.863H616.484C616.432 184.095 616.146 183.493 615.625 183.057C615.104 182.62 614.417 182.402 613.564 182.402C612.757 182.402 612.096 182.591 611.582 182.969C611.068 183.346 610.811 183.831 610.811 184.424C610.811 184.912 611.012 185.309 611.416 185.615C611.826 185.915 612.507 186.172 613.457 186.387L614.932 186.729C616.442 187.061 617.549 187.555 618.252 188.213C618.955 188.87 619.307 189.733 619.307 190.801C619.307 191.706 619.079 192.49 618.623 193.154C618.167 193.818 617.52 194.333 616.68 194.697C615.84 195.055 614.847 195.234 613.701 195.234ZM625.723 195.234C624.707 195.234 623.818 195.01 623.057 194.561C622.295 194.105 621.699 193.473 621.27 192.666C620.846 191.859 620.635 190.921 620.635 189.854C620.635 188.786 620.846 187.848 621.27 187.041C621.699 186.227 622.295 185.592 623.057 185.137C623.818 184.681 624.707 184.453 625.723 184.453C626.732 184.453 627.617 184.681 628.379 185.137C629.147 185.592 629.743 186.227 630.166 187.041C630.596 187.848 630.811 188.786 630.811 189.854C630.811 190.921 630.596 191.859 630.166 192.666C629.743 193.473 629.147 194.105 628.379 194.561C627.617 195.01 626.732 195.234 625.723 195.234ZM625.723 193.174C626.51 193.174 627.139 192.878 627.607 192.285C628.076 191.693 628.311 190.882 628.311 189.854C628.311 188.825 628.076 188.011 627.607 187.412C627.139 186.813 626.51 186.514 625.723 186.514C624.928 186.514 624.297 186.813 623.828 187.412C623.359 188.005 623.125 188.818 623.125 189.854C623.125 190.882 623.359 191.693 623.828 192.285C624.297 192.878 624.928 193.174 625.723 193.174ZM638.018 184.688V186.67H635.918V195H633.447V186.67H631.592V184.688H633.447V183.184C633.447 182.298 633.714 181.621 634.248 181.152C634.788 180.684 635.566 180.449 636.582 180.449H638.018V182.432H637.07C636.647 182.432 636.348 182.52 636.172 182.695C636.003 182.871 635.918 183.171 635.918 183.594V184.688H638.018ZM644.15 184.688V186.67H642.051V192.041C642.051 192.412 642.126 192.669 642.275 192.812C642.425 192.949 642.699 193.018 643.096 193.018H644.15V195H642.666C641.618 195 640.84 194.788 640.332 194.365C639.831 193.942 639.58 193.288 639.58 192.402V186.67H637.783V184.688H639.58V181.875H642.051V184.688H644.15ZM648.457 195L645.273 184.688H647.861L648.926 188.604C649.089 189.215 649.245 189.847 649.395 190.498C649.544 191.149 649.697 191.794 649.854 192.432C650.01 191.794 650.169 191.149 650.332 190.498C650.495 189.847 650.661 189.215 650.83 188.604L651.924 184.688H654.199L655.283 188.604C655.446 189.215 655.605 189.844 655.762 190.488C655.924 191.133 656.087 191.774 656.25 192.412C656.4 191.774 656.549 191.133 656.699 190.488C656.849 189.844 657.005 189.215 657.168 188.604L658.232 184.688H660.85L657.656 195H655.098L653.848 190.703C653.711 190.228 653.577 189.74 653.447 189.238C653.317 188.737 653.187 188.236 653.057 187.734C652.933 188.236 652.806 188.737 652.676 189.238C652.546 189.74 652.409 190.228 652.266 190.703L650.996 195H648.457ZM665.098 195.166C664.069 195.166 663.216 194.909 662.539 194.395C661.868 193.874 661.533 193.099 661.533 192.07C661.533 191.289 661.722 190.687 662.1 190.264C662.484 189.834 662.982 189.521 663.594 189.326C664.212 189.131 664.876 188.997 665.586 188.926C666.543 188.815 667.21 188.717 667.588 188.633C667.965 188.548 668.154 188.33 668.154 187.979V187.9C668.154 187.458 667.985 187.096 667.646 186.816C667.314 186.536 666.855 186.396 666.27 186.396C665.671 186.396 665.182 186.536 664.805 186.816C664.434 187.096 664.232 187.454 664.199 187.891H661.826C661.885 186.868 662.311 186.045 663.105 185.42C663.9 184.795 664.971 184.482 666.318 184.482C667.66 184.482 668.708 184.795 669.463 185.42C670.218 186.045 670.596 186.895 670.596 187.969V195H668.174V193.545H668.135C667.887 194.001 667.529 194.385 667.061 194.697C666.592 195.01 665.938 195.166 665.098 195.166ZM665.703 193.34C666.51 193.34 667.122 193.132 667.539 192.715C667.956 192.292 668.164 191.781 668.164 191.182V190.068C668.014 190.166 667.725 190.257 667.295 190.342C666.865 190.42 666.396 190.498 665.889 190.576C665.361 190.654 664.902 190.804 664.512 191.025C664.128 191.24 663.936 191.582 663.936 192.051C663.936 192.454 664.095 192.77 664.414 192.998C664.733 193.226 665.163 193.34 665.703 193.34ZM672.773 195V184.688H675.146V186.396H675.176C675.365 185.811 675.661 185.365 676.064 185.059C676.475 184.746 677.012 184.59 677.676 184.59C677.845 184.59 677.995 184.596 678.125 184.609C678.262 184.616 678.379 184.622 678.477 184.629V186.816C678.385 186.803 678.229 186.787 678.008 186.768C677.786 186.748 677.555 186.738 677.314 186.738C676.729 186.738 676.234 186.94 675.83 187.344C675.433 187.747 675.234 188.353 675.234 189.16V195H672.773ZM684.316 195.234C683.288 195.234 682.396 195.003 681.641 194.541C680.885 194.079 680.303 193.444 679.893 192.637C679.489 191.823 679.287 190.895 679.287 189.854C679.287 188.805 679.495 187.878 679.912 187.07C680.335 186.257 680.918 185.618 681.66 185.156C682.402 184.688 683.255 184.453 684.219 184.453C685.208 184.453 686.074 184.681 686.816 185.137C687.559 185.592 688.135 186.224 688.545 187.031C688.955 187.832 689.16 188.76 689.16 189.814V190.488H681.699C681.732 191.328 681.979 192.005 682.441 192.52C682.904 193.034 683.548 193.291 684.375 193.291C684.993 193.291 685.505 193.158 685.908 192.891C686.312 192.617 686.585 192.259 686.729 191.816H689.033C688.903 192.487 688.617 193.079 688.174 193.594C687.738 194.108 687.188 194.512 686.523 194.805C685.859 195.091 685.124 195.234 684.316 195.234ZM681.719 188.789H686.797C686.719 188.053 686.452 187.474 685.996 187.051C685.547 186.621 684.967 186.406 684.258 186.406C683.542 186.406 682.959 186.621 682.51 187.051C682.067 187.474 681.803 188.053 681.719 188.789ZM695.488 195V180.449H705.596V182.686H698.066V186.514H705.029V188.711H698.066V192.764H705.596V195H695.488ZM709.805 189.17V195H707.344V184.688H709.766V186.27C710.482 185.078 711.536 184.482 712.93 184.482C714.01 184.482 714.893 184.831 715.576 185.527C716.266 186.224 716.611 187.233 716.611 188.555V195H714.141V188.945C714.141 188.19 713.958 187.617 713.594 187.227C713.229 186.836 712.718 186.641 712.061 186.641C711.416 186.641 710.879 186.842 710.449 187.246C710.02 187.65 709.805 188.291 709.805 189.17ZM723.486 199.219C722.126 199.219 721.045 198.926 720.244 198.34C719.443 197.754 718.975 196.96 718.838 195.957H721.25C721.367 196.4 721.624 196.735 722.021 196.963C722.419 197.197 722.907 197.314 723.486 197.314C724.255 197.314 724.85 197.106 725.273 196.689C725.703 196.273 725.918 195.671 725.918 194.883V193.311H725.908C725.576 193.916 725.143 194.362 724.609 194.648C724.076 194.928 723.47 195.068 722.793 195.068C721.895 195.068 721.11 194.844 720.439 194.395C719.769 193.945 719.248 193.327 718.877 192.539C718.512 191.745 718.33 190.83 718.33 189.795C718.33 188.753 718.516 187.832 718.887 187.031C719.258 186.23 719.779 185.605 720.449 185.156C721.12 184.707 721.895 184.482 722.773 184.482C723.444 184.482 724.049 184.626 724.59 184.912C725.137 185.192 725.579 185.628 725.918 186.221H725.928V184.688H728.359V194.736C728.359 195.798 728.148 196.657 727.725 197.314C727.301 197.979 726.722 198.46 725.986 198.76C725.251 199.066 724.417 199.219 723.486 199.219ZM723.369 193.037C724.176 193.037 724.821 192.741 725.303 192.148C725.791 191.549 726.035 190.755 726.035 189.766C726.035 188.776 725.791 187.985 725.303 187.393C724.821 186.794 724.176 186.494 723.369 186.494C722.607 186.494 721.992 186.777 721.523 187.344C721.055 187.91 720.82 188.717 720.82 189.766C720.82 190.82 721.055 191.631 721.523 192.197C721.992 192.757 722.607 193.037 723.369 193.037ZM730.547 195V184.688H733.008V195H730.547ZM731.777 183.154C731.354 183.154 731.003 183.021 730.723 182.754C730.443 182.48 730.303 182.145 730.303 181.748C730.303 181.351 730.443 181.019 730.723 180.752C731.003 180.485 731.354 180.352 731.777 180.352C732.194 180.352 732.542 180.485 732.822 180.752C733.102 181.019 733.242 181.351 733.242 181.748C733.242 182.145 733.102 182.48 732.822 182.754C732.542 183.021 732.194 183.154 731.777 183.154ZM737.656 189.17V195H735.195V184.688H737.617V186.27C738.333 185.078 739.388 184.482 740.781 184.482C741.862 184.482 742.744 184.831 743.428 185.527C744.118 186.224 744.463 187.233 744.463 188.555V195H741.992V188.945C741.992 188.19 741.81 187.617 741.445 187.227C741.081 186.836 740.57 186.641 739.912 186.641C739.268 186.641 738.73 186.842 738.301 187.246C737.871 187.65 737.656 188.291 737.656 189.17ZM751.211 195.234C750.182 195.234 749.29 195.003 748.535 194.541C747.78 194.079 747.197 193.444 746.787 192.637C746.383 191.823 746.182 190.895 746.182 189.854C746.182 188.805 746.39 187.878 746.807 187.07C747.23 186.257 747.812 185.618 748.555 185.156C749.297 184.688 750.15 184.453 751.113 184.453C752.103 184.453 752.969 184.681 753.711 185.137C754.453 185.592 755.029 186.224 755.439 187.031C755.85 187.832 756.055 188.76 756.055 189.814V190.488H748.594C748.626 191.328 748.874 192.005 749.336 192.52C749.798 193.034 750.443 193.291 751.27 193.291C751.888 193.291 752.399 193.158 752.803 192.891C753.206 192.617 753.48 192.259 753.623 191.816H755.928C755.798 192.487 755.511 193.079 755.068 193.594C754.632 194.108 754.082 194.512 753.418 194.805C752.754 195.091 752.018 195.234 751.211 195.234ZM748.613 188.789H753.691C753.613 188.053 753.346 187.474 752.891 187.051C752.441 186.621 751.862 186.406 751.152 186.406C750.436 186.406 749.854 186.621 749.404 187.051C748.962 187.474 748.698 188.053 748.613 188.789ZM762.285 195.234C761.257 195.234 760.365 195.003 759.609 194.541C758.854 194.079 758.271 193.444 757.861 192.637C757.458 191.823 757.256 190.895 757.256 189.854C757.256 188.805 757.464 187.878 757.881 187.07C758.304 186.257 758.887 185.618 759.629 185.156C760.371 184.688 761.224 184.453 762.188 184.453C763.177 184.453 764.043 184.681 764.785 185.137C765.527 185.592 766.104 186.224 766.514 187.031C766.924 187.832 767.129 188.76 767.129 189.814V190.488H759.668C759.701 191.328 759.948 192.005 760.41 192.52C760.872 193.034 761.517 193.291 762.344 193.291C762.962 193.291 763.473 193.158 763.877 192.891C764.281 192.617 764.554 192.259 764.697 191.816H767.002C766.872 192.487 766.585 193.079 766.143 193.594C765.706 194.108 765.156 194.512 764.492 194.805C763.828 195.091 763.092 195.234 762.285 195.234ZM759.688 188.789H764.766C764.688 188.053 764.421 187.474 763.965 187.051C763.516 186.621 762.936 186.406 762.227 186.406C761.51 186.406 760.928 186.621 760.479 187.051C760.036 187.474 759.772 188.053 759.688 188.789ZM768.809 195V184.688H771.182V186.396H771.211C771.4 185.811 771.696 185.365 772.1 185.059C772.51 184.746 773.047 184.59 773.711 184.59C773.88 184.59 774.03 184.596 774.16 184.609C774.297 184.616 774.414 184.622 774.512 184.629V186.816C774.421 186.803 774.264 186.787 774.043 186.768C773.822 186.748 773.59 186.738 773.35 186.738C772.764 186.738 772.269 186.94 771.865 187.344C771.468 187.747 771.27 188.353 771.27 189.16V195H768.809ZM776.016 195V184.688H778.477V195H776.016ZM777.246 183.154C776.823 183.154 776.471 183.021 776.191 182.754C775.911 182.48 775.771 182.145 775.771 181.748C775.771 181.351 775.911 181.019 776.191 180.752C776.471 180.485 776.823 180.352 777.246 180.352C777.663 180.352 778.011 180.485 778.291 180.752C778.571 181.019 778.711 181.351 778.711 181.748C778.711 182.145 778.571 182.48 778.291 182.754C778.011 183.021 777.663 183.154 777.246 183.154ZM783.125 189.17V195H780.664V184.688H783.086V186.27C783.802 185.078 784.857 184.482 786.25 184.482C787.331 184.482 788.213 184.831 788.896 185.527C789.587 186.224 789.932 187.233 789.932 188.555V195H787.461V188.945C787.461 188.19 787.279 187.617 786.914 187.227C786.549 186.836 786.038 186.641 785.381 186.641C784.736 186.641 784.199 186.842 783.77 187.246C783.34 187.65 783.125 188.291 783.125 189.17ZM796.807 199.219C795.446 199.219 794.365 198.926 793.564 198.34C792.764 197.754 792.295 196.96 792.158 195.957H794.57C794.688 196.4 794.945 196.735 795.342 196.963C795.739 197.197 796.227 197.314 796.807 197.314C797.575 197.314 798.171 197.106 798.594 196.689C799.023 196.273 799.238 195.671 799.238 194.883V193.311H799.229C798.896 193.916 798.464 194.362 797.93 194.648C797.396 194.928 796.79 195.068 796.113 195.068C795.215 195.068 794.43 194.844 793.76 194.395C793.089 193.945 792.568 193.327 792.197 192.539C791.833 191.745 791.65 190.83 791.65 189.795C791.65 188.753 791.836 187.832 792.207 187.031C792.578 186.23 793.099 185.605 793.77 185.156C794.44 184.707 795.215 184.482 796.094 184.482C796.764 184.482 797.37 184.626 797.91 184.912C798.457 185.192 798.9 185.628 799.238 186.221H799.248V184.688H801.68V194.736C801.68 195.798 801.468 196.657 801.045 197.314C800.622 197.979 800.042 198.46 799.307 198.76C798.571 199.066 797.738 199.219 796.807 199.219ZM796.689 193.037C797.497 193.037 798.141 192.741 798.623 192.148C799.111 191.549 799.355 190.755 799.355 189.766C799.355 188.776 799.111 187.985 798.623 187.393C798.141 186.794 797.497 186.494 796.689 186.494C795.928 186.494 795.312 186.777 794.844 187.344C794.375 187.91 794.141 188.717 794.141 189.766C794.141 190.82 794.375 191.631 794.844 192.197C795.312 192.757 795.928 193.037 796.689 193.037Z" fill="#0F0E0E"/>
<path d="M-0.0625 93V-0.125H20.1875L50.125 47.5C51.2083 49.25 52.6667 51.7292 54.5 54.9375C56.3333 58.1458 58.1667 61.4167 60 64.75C59.875 61.125 59.7917 57.5833 59.75 54.125C59.7083 50.625 59.6875 47.8958 59.6875 45.9375V-0.125H78.875V93H58.5625L31.4375 49.875C30.0625 47.75 28.25 44.7917 26 41C23.7917 37.1667 21.375 32.875 18.75 28.125C18.9167 33 19.0208 37.3333 19.0625 41.125C19.1458 44.9167 19.1875 47.8125 19.1875 49.8125V93H-0.0625ZM106.162 94.125C99.5792 94.125 94.1417 92.4792 89.85 89.1875C85.6 85.8958 83.475 80.9583 83.475 74.375C83.475 69.4167 84.6625 65.5417 87.0375 62.75C89.4125 59.9167 92.5583 57.8542 96.475 56.5625C100.392 55.2708 104.642 54.4167 109.225 54C115.267 53.375 119.496 52.75 121.912 52.125C124.329 51.5 125.537 50.125 125.537 48V47.5625C125.537 45.1458 124.579 43.1667 122.662 41.625C120.746 40.0833 118.1 39.3125 114.725 39.3125C111.308 39.3125 108.537 40.1042 106.412 41.6875C104.287 43.2708 103.121 45.3333 102.912 47.875H85.6C86.0167 41.0833 88.8083 35.6875 93.975 31.6875C99.1417 27.6458 106.246 25.625 115.287 25.625C124.329 25.625 131.329 27.6458 136.287 31.6875C141.246 35.6875 143.725 41.2083 143.725 48.25V93H125.725V83.6875H125.475C123.725 86.8958 121.329 89.4375 118.287 91.3125C115.246 93.1875 111.204 94.125 106.162 94.125ZM111.287 81.3125C115.704 81.3125 119.204 80.1458 121.787 77.8125C124.371 75.4375 125.662 72.4583 125.662 68.875V62.25C124.621 62.8333 122.892 63.375 120.475 63.875C118.058 64.3333 115.371 64.7917 112.412 65.25C109.246 65.75 106.558 66.6667 104.35 68C102.183 69.2917 101.1 71.25 101.1 73.875C101.1 76.2083 102.017 78.0417 103.85 79.375C105.725 80.6667 108.204 81.3125 111.287 81.3125ZM188.262 27V41.4375H174.762V72.625C174.762 74.875 175.2 76.4375 176.075 77.3125C176.992 78.1458 178.7 78.5625 181.2 78.5625H188.262V93H177.512C170.262 93 164.908 91.5833 161.45 88.75C158.033 85.9167 156.325 81.5 156.325 75.5V41.4375H144.95V27H156.325V9H174.762V27H188.262ZM209.613 56.3125V93H191.175V-0.125H209.613V36.9375C211.821 33.3125 214.592 30.5208 217.925 28.5625C221.3 26.6042 225.3 25.625 229.925 25.625C236.925 25.625 242.529 27.8958 246.738 32.4375C250.946 36.9375 253.05 43.3542 253.05 51.6875V93H234.675V55.0625C234.675 50.6458 233.613 47.2917 231.488 45C229.363 42.6667 226.383 41.5 222.55 41.5C218.758 41.5 215.654 42.6875 213.238 45.0625C210.821 47.4375 209.613 51.1875 209.613 56.3125ZM279.962 94.125C273.379 94.125 267.942 92.4792 263.65 89.1875C259.4 85.8958 257.275 80.9583 257.275 74.375C257.275 69.4167 258.462 65.5417 260.837 62.75C263.212 59.9167 266.358 57.8542 270.275 56.5625C274.192 55.2708 278.442 54.4167 283.025 54C289.067 53.375 293.296 52.75 295.712 52.125C298.129 51.5 299.337 50.125 299.337 48V47.5625C299.337 45.1458 298.379 43.1667 296.462 41.625C294.546 40.0833 291.9 39.3125 288.525 39.3125C285.108 39.3125 282.337 40.1042 280.212 41.6875C278.087 43.2708 276.921 45.3333 276.712 47.875H259.4C259.817 41.0833 262.608 35.6875 267.775 31.6875C272.942 27.6458 280.046 25.625 289.087 25.625C298.129 25.625 305.129 27.6458 310.087 31.6875C315.046 35.6875 317.525 41.2083 317.525 48.25V93H299.525V83.6875H299.275C297.525 86.8958 295.129 89.4375 292.087 91.3125C289.046 93.1875 285.004 94.125 279.962 94.125ZM285.087 81.3125C289.504 81.3125 293.004 80.1458 295.587 77.8125C298.171 75.4375 299.462 72.4583 299.462 68.875V62.25C298.421 62.8333 296.692 63.375 294.275 63.875C291.858 64.3333 289.171 64.7917 286.212 65.25C283.046 65.75 280.358 66.6667 278.15 68C275.983 69.2917 274.9 71.25 274.9 73.875C274.9 76.2083 275.817 78.0417 277.65 79.375C279.525 80.6667 282.004 81.3125 285.087 81.3125ZM342.562 56.3125V93H324.125V27H342.25V37.375C344.5 33.625 347.312 30.7292 350.688 28.6875C354.062 26.6458 358.125 25.625 362.875 25.625C369.875 25.625 375.479 27.8958 379.688 32.4375C383.896 36.9375 386 43.3542 386 51.6875V93H367.625V55.0625C367.625 50.6458 366.562 47.2917 364.438 45C362.312 42.6667 359.333 41.5 355.5 41.5C351.708 41.5 348.604 42.6875 346.188 45.0625C343.771 47.4375 342.562 51.1875 342.562 56.3125ZM32.8125 195H-0.0625V101.875H33.1875C42.5208 101.875 50.6042 103.771 57.4375 107.562C64.2708 111.354 69.5417 116.729 73.25 123.688C76.9583 130.646 78.8125 138.875 78.8125 148.375C78.8125 157.917 76.9583 166.188 73.25 173.188C69.5417 180.146 64.25 185.521 57.375 189.312C50.5417 193.104 42.3542 195 32.8125 195ZM19.1875 178.812H31.8125C41.2292 178.812 48.1875 176.188 52.6875 170.938C57.1875 165.688 59.4375 158.167 59.4375 148.375C59.4375 138.583 57.1667 131.083 52.625 125.875C48.125 120.667 41.25 118.062 32 118.062H19.1875V178.812ZM103.037 196.125C96.4542 196.125 91.0167 194.479 86.725 191.188C82.475 187.896 80.35 182.958 80.35 176.375C80.35 171.417 81.5375 167.542 83.9125 164.75C86.2875 161.917 89.4333 159.854 93.35 158.562C97.2667 157.271 101.517 156.417 106.1 156C112.142 155.375 116.371 154.75 118.787 154.125C121.204 153.5 122.412 152.125 122.412 150V149.562C122.412 147.146 121.454 145.167 119.537 143.625C117.621 142.083 114.975 141.312 111.6 141.312C108.183 141.312 105.412 142.104 103.287 143.688C101.162 145.271 99.9958 147.333 99.7875 149.875H82.475C82.8917 143.083 85.6833 137.688 90.85 133.688C96.0167 129.646 103.121 127.625 112.162 127.625C121.204 127.625 128.204 129.646 133.162 133.688C138.121 137.688 140.6 143.208 140.6 150.25V195H122.6V185.688H122.35C120.6 188.896 118.204 191.438 115.162 193.312C112.121 195.188 108.079 196.125 103.037 196.125ZM108.162 183.312C112.579 183.312 116.079 182.146 118.662 179.812C121.246 177.438 122.537 174.458 122.537 170.875V164.25C121.496 164.833 119.767 165.375 117.35 165.875C114.933 166.333 112.246 166.792 109.287 167.25C106.121 167.75 103.433 168.667 101.225 170C99.0583 171.292 97.975 173.25 97.975 175.875C97.975 178.208 98.8917 180.042 100.725 181.375C102.6 182.667 105.079 183.312 108.162 183.312ZM163.012 195L138.575 129H157.887L168.762 161.625C169.596 164.208 170.408 166.812 171.2 169.438C171.992 172.021 172.762 174.625 173.512 177.25C174.262 174.625 175.012 172.021 175.762 169.438C176.554 166.812 177.346 164.208 178.137 161.625L188.887 129H208.012L183.512 195H163.012ZM236.55 196.5C229.883 196.5 224.071 195.021 219.113 192.062C214.196 189.104 210.363 185.042 207.613 179.875C204.904 174.667 203.55 168.729 203.55 162.062C203.55 155.354 204.925 149.396 207.675 144.188C210.467 138.979 214.3 134.896 219.175 131.938C224.05 128.979 229.633 127.5 235.925 127.5C242.425 127.5 248.092 128.958 252.925 131.875C257.8 134.75 261.592 138.771 264.3 143.938C267.05 149.062 268.425 154.979 268.425 161.688V166.625H221.488C221.654 171.5 223.092 175.396 225.8 178.312C228.508 181.229 232.279 182.688 237.113 182.688C240.696 182.688 243.675 181.917 246.05 180.375C248.467 178.833 250.092 176.792 250.925 174.25H267.738C266.946 178.625 265.092 182.479 262.175 185.812C259.258 189.146 255.592 191.771 251.175 193.688C246.758 195.562 241.883 196.5 236.55 196.5ZM221.613 154.875H251.05C250.592 150.75 249.05 147.5 246.425 145.125C243.842 142.708 240.467 141.5 236.3 141.5C232.175 141.5 228.821 142.708 226.238 145.125C223.654 147.5 222.113 150.75 221.613 154.875ZM290.337 158.312V195H271.9V129H290.025V139.375C292.275 135.625 295.087 132.729 298.462 130.688C301.837 128.646 305.9 127.625 310.65 127.625C317.65 127.625 323.254 129.896 327.462 134.438C331.671 138.938 333.775 145.354 333.775 153.688V195H315.4V157.062C315.4 152.646 314.337 149.292 312.212 147C310.087 144.667 307.108 143.5 303.275 143.5C299.483 143.5 296.379 144.688 293.962 147.062C291.546 149.438 290.337 153.188 290.337 158.312ZM340.5 221.125V129H358.688V137.938H358.875C360.917 134.521 363.604 131.958 366.938 130.25C370.312 128.5 374.146 127.625 378.438 127.625C384.062 127.625 389 129.083 393.25 132C397.542 134.875 400.875 138.896 403.25 144.062C405.667 149.229 406.875 155.188 406.875 161.938C406.875 168.812 405.688 174.833 403.312 180C400.938 185.167 397.604 189.188 393.312 192.062C389.062 194.938 384.062 196.375 378.312 196.375C369.354 196.375 362.958 192.625 359.125 185.125H358.938V221.125H340.5ZM373.562 181.375C378.021 181.375 381.583 179.688 384.25 176.312C386.958 172.896 388.312 168.104 388.312 161.938C388.312 155.771 386.958 151 384.25 147.625C381.583 144.208 378.021 142.5 373.562 142.5C368.896 142.5 365.146 144.271 362.312 147.812C359.479 151.354 358.062 156.062 358.062 161.938C358.062 167.854 359.479 172.583 362.312 176.125C365.146 179.625 368.896 181.375 373.562 181.375ZM441.225 196.5C434.558 196.5 428.704 195.062 423.663 192.188C418.663 189.312 414.746 185.312 411.913 180.188C409.121 175.021 407.725 168.979 407.725 162.062C407.725 155.146 409.121 149.104 411.913 143.938C414.746 138.771 418.663 134.75 423.663 131.875C428.704 128.958 434.558 127.5 441.225 127.5C447.933 127.5 453.788 128.958 458.788 131.875C463.829 134.75 467.746 138.771 470.538 143.938C473.371 149.104 474.788 155.146 474.788 162.062C474.788 168.938 473.371 174.958 470.538 180.125C467.746 185.292 463.829 189.312 458.788 192.188C453.788 195.062 447.933 196.5 441.225 196.5ZM441.225 181.562C445.725 181.562 449.35 179.854 452.1 176.438C454.85 172.979 456.225 168.188 456.225 162.062C456.225 155.896 454.85 151.083 452.1 147.625C449.35 144.167 445.725 142.438 441.225 142.438C436.767 142.438 433.163 144.167 430.413 147.625C427.663 151.083 426.288 155.896 426.288 162.062C426.288 168.188 427.663 172.979 430.413 176.438C433.163 179.854 436.767 181.562 441.225 181.562ZM478.575 195V129H496.325V140.25H496.513C497.721 136.292 499.617 133.354 502.2 131.438C504.783 129.521 508.263 128.562 512.638 128.562C513.721 128.562 514.7 128.583 515.575 128.625C516.492 128.667 517.325 128.688 518.075 128.688V144.375C517.408 144.333 516.304 144.271 514.763 144.188C513.221 144.104 511.679 144.062 510.138 144.062C506.346 144.062 503.2 145.354 500.7 147.938C498.242 150.521 497.013 154.292 497.013 159.25V195H478.575ZM560.487 129V143.438H546.987V174.625C546.987 176.875 547.425 178.438 548.3 179.312C549.217 180.146 550.925 180.562 553.425 180.562H560.487V195H549.737C542.487 195 537.133 193.583 533.675 190.75C530.258 187.917 528.55 183.5 528.55 177.5V143.438H517.175V129H528.55V111H546.987V129H560.487Z" fill="#0F0E0E"/>
</g>
<defs>
<clipPath id="clip0_728_530">
<rect width="803" height="221" fill="white"/>
</clipPath>
</defs>
</svg>
